%
M48
M72
T01C0.0394
T02C0.0400
%
T01
X15500Y4500
X16500Y4500
X17500Y4500
X18500Y4500
X19500Y4500
X20500Y4500
X21500Y4500
X22500Y4500
X24500Y4500
X25500Y4500
X26500Y4500
X27500Y4500
X28500Y4500
X29500Y4500
X29500Y23500
X28500Y23500
X27500Y23500
X26500Y23500
X25500Y23500
X24500Y23500
X23500Y23500
X22500Y23500
X20900Y23500
X19900Y23500
X18900Y23500
X17900Y23500
X16900Y23500
X15900Y23500
X14900Y23500
X13900Y23500
X12900Y23500
X11900Y23500
T02
X12950Y5000
X14050Y5000
X14050Y7500
X12950Y7500
X14000Y9900
X15000Y10000
X16000Y9900
X13000Y10000
X13000Y12500
X14000Y12500
X15000Y12500
X18000Y15500
X19000Y15500
X20000Y15500
X15000Y18500
X14000Y18500
X13000Y18500
M30
