G75*
%MOIN*%
%OFA0B0*%
%FSLAX24Y24*%
%IPPOS*%
%LPD*%
%AMOC8*
5,1,8,0,0,1.08239X$1,22.5*
%
%ADD10C,0.0010*%
D10*
X012560Y005000D02*
X012562Y005039D01*
X012568Y005077D01*
X012577Y005115D01*
X012591Y005151D01*
X012607Y005187D01*
X012628Y005220D01*
X012651Y005251D01*
X012678Y005279D01*
X012707Y005305D01*
X012738Y005328D01*
X012772Y005347D01*
X012808Y005363D01*
X012844Y005375D01*
X012882Y005384D01*
X012921Y005389D01*
X012960Y005390D01*
X012998Y005387D01*
X013037Y005380D01*
X013074Y005370D01*
X013110Y005355D01*
X013145Y005338D01*
X013178Y005317D01*
X013208Y005292D01*
X013236Y005265D01*
X013261Y005235D01*
X013283Y005203D01*
X013301Y005169D01*
X013316Y005133D01*
X013328Y005096D01*
X013336Y005058D01*
X013340Y005019D01*
X013340Y004981D01*
X013336Y004942D01*
X013328Y004904D01*
X013316Y004867D01*
X013301Y004831D01*
X013283Y004797D01*
X013261Y004765D01*
X013236Y004735D01*
X013208Y004708D01*
X013178Y004683D01*
X013145Y004662D01*
X013110Y004645D01*
X013074Y004630D01*
X013037Y004620D01*
X012998Y004613D01*
X012960Y004610D01*
X012921Y004611D01*
X012882Y004616D01*
X012844Y004625D01*
X012808Y004637D01*
X012772Y004653D01*
X012738Y004672D01*
X012707Y004695D01*
X012678Y004721D01*
X012651Y004749D01*
X012628Y004780D01*
X012607Y004813D01*
X012591Y004849D01*
X012577Y004885D01*
X012568Y004923D01*
X012562Y004961D01*
X012560Y005000D01*
X012550Y004600D02*
X013350Y005400D01*
X013660Y005000D02*
X013662Y005039D01*
X013668Y005077D01*
X013677Y005115D01*
X013691Y005151D01*
X013707Y005187D01*
X013728Y005220D01*
X013751Y005251D01*
X013778Y005279D01*
X013807Y005305D01*
X013838Y005328D01*
X013872Y005347D01*
X013908Y005363D01*
X013944Y005375D01*
X013982Y005384D01*
X014021Y005389D01*
X014060Y005390D01*
X014098Y005387D01*
X014137Y005380D01*
X014174Y005370D01*
X014210Y005355D01*
X014245Y005338D01*
X014278Y005317D01*
X014308Y005292D01*
X014336Y005265D01*
X014361Y005235D01*
X014383Y005203D01*
X014401Y005169D01*
X014416Y005133D01*
X014428Y005096D01*
X014436Y005058D01*
X014440Y005019D01*
X014440Y004981D01*
X014436Y004942D01*
X014428Y004904D01*
X014416Y004867D01*
X014401Y004831D01*
X014383Y004797D01*
X014361Y004765D01*
X014336Y004735D01*
X014308Y004708D01*
X014278Y004683D01*
X014245Y004662D01*
X014210Y004645D01*
X014174Y004630D01*
X014137Y004620D01*
X014098Y004613D01*
X014060Y004610D01*
X014021Y004611D01*
X013982Y004616D01*
X013944Y004625D01*
X013908Y004637D01*
X013872Y004653D01*
X013838Y004672D01*
X013807Y004695D01*
X013778Y004721D01*
X013751Y004749D01*
X013728Y004780D01*
X013707Y004813D01*
X013691Y004849D01*
X013677Y004885D01*
X013668Y004923D01*
X013662Y004961D01*
X013660Y005000D01*
X013650Y004600D02*
X014450Y005400D01*
X015100Y004100D02*
X015900Y004900D01*
X015900Y004100D01*
X015100Y004900D01*
X015100Y004100D01*
X016100Y004100D02*
X016900Y004900D01*
X016900Y004100D01*
X016100Y004900D01*
X016100Y004100D01*
X017100Y004100D02*
X017900Y004900D01*
X017900Y004100D01*
X017100Y004900D01*
X017100Y004100D01*
X018100Y004100D02*
X018900Y004900D01*
X018900Y004100D01*
X018100Y004900D01*
X018100Y004100D01*
X019100Y004100D02*
X019900Y004900D01*
X019900Y004100D01*
X019100Y004900D01*
X019100Y004100D01*
X020100Y004100D02*
X020900Y004900D01*
X020900Y004100D01*
X020100Y004900D01*
X020100Y004100D01*
X021100Y004100D02*
X021900Y004900D01*
X021900Y004100D01*
X021100Y004900D01*
X021100Y004100D01*
X022100Y004100D02*
X022900Y004900D01*
X022900Y004100D01*
X022100Y004900D01*
X022100Y004100D01*
X024100Y004100D02*
X024900Y004900D01*
X024900Y004100D01*
X024100Y004900D01*
X024100Y004100D01*
X025100Y004100D02*
X025900Y004900D01*
X025900Y004100D01*
X025100Y004900D01*
X025100Y004100D01*
X026100Y004100D02*
X026900Y004900D01*
X026900Y004100D01*
X026100Y004900D01*
X026100Y004100D01*
X027100Y004100D02*
X027900Y004900D01*
X027900Y004100D01*
X027100Y004900D01*
X027100Y004100D01*
X028100Y004100D02*
X028900Y004900D01*
X028900Y004100D01*
X028100Y004900D01*
X028100Y004100D01*
X029100Y004100D02*
X029900Y004900D01*
X029900Y004100D01*
X029100Y004900D01*
X029100Y004100D01*
X015610Y009900D02*
X015612Y009939D01*
X015618Y009977D01*
X015627Y010015D01*
X015641Y010051D01*
X015657Y010087D01*
X015678Y010120D01*
X015701Y010151D01*
X015728Y010179D01*
X015757Y010205D01*
X015788Y010228D01*
X015822Y010247D01*
X015858Y010263D01*
X015894Y010275D01*
X015932Y010284D01*
X015971Y010289D01*
X016010Y010290D01*
X016048Y010287D01*
X016087Y010280D01*
X016124Y010270D01*
X016160Y010255D01*
X016195Y010238D01*
X016228Y010217D01*
X016258Y010192D01*
X016286Y010165D01*
X016311Y010135D01*
X016333Y010103D01*
X016351Y010069D01*
X016366Y010033D01*
X016378Y009996D01*
X016386Y009958D01*
X016390Y009919D01*
X016390Y009881D01*
X016386Y009842D01*
X016378Y009804D01*
X016366Y009767D01*
X016351Y009731D01*
X016333Y009697D01*
X016311Y009665D01*
X016286Y009635D01*
X016258Y009608D01*
X016228Y009583D01*
X016195Y009562D01*
X016160Y009545D01*
X016124Y009530D01*
X016087Y009520D01*
X016048Y009513D01*
X016010Y009510D01*
X015971Y009511D01*
X015932Y009516D01*
X015894Y009525D01*
X015858Y009537D01*
X015822Y009553D01*
X015788Y009572D01*
X015757Y009595D01*
X015728Y009621D01*
X015701Y009649D01*
X015678Y009680D01*
X015657Y009713D01*
X015641Y009749D01*
X015627Y009785D01*
X015618Y009823D01*
X015612Y009861D01*
X015610Y009900D01*
X015600Y009500D02*
X016400Y010300D01*
X014610Y010000D02*
X014612Y010039D01*
X014618Y010077D01*
X014627Y010115D01*
X014641Y010151D01*
X014657Y010187D01*
X014678Y010220D01*
X014701Y010251D01*
X014728Y010279D01*
X014757Y010305D01*
X014788Y010328D01*
X014822Y010347D01*
X014858Y010363D01*
X014894Y010375D01*
X014932Y010384D01*
X014971Y010389D01*
X015010Y010390D01*
X015048Y010387D01*
X015087Y010380D01*
X015124Y010370D01*
X015160Y010355D01*
X015195Y010338D01*
X015228Y010317D01*
X015258Y010292D01*
X015286Y010265D01*
X015311Y010235D01*
X015333Y010203D01*
X015351Y010169D01*
X015366Y010133D01*
X015378Y010096D01*
X015386Y010058D01*
X015390Y010019D01*
X015390Y009981D01*
X015386Y009942D01*
X015378Y009904D01*
X015366Y009867D01*
X015351Y009831D01*
X015333Y009797D01*
X015311Y009765D01*
X015286Y009735D01*
X015258Y009708D01*
X015228Y009683D01*
X015195Y009662D01*
X015160Y009645D01*
X015124Y009630D01*
X015087Y009620D01*
X015048Y009613D01*
X015010Y009610D01*
X014971Y009611D01*
X014932Y009616D01*
X014894Y009625D01*
X014858Y009637D01*
X014822Y009653D01*
X014788Y009672D01*
X014757Y009695D01*
X014728Y009721D01*
X014701Y009749D01*
X014678Y009780D01*
X014657Y009813D01*
X014641Y009849D01*
X014627Y009885D01*
X014618Y009923D01*
X014612Y009961D01*
X014610Y010000D01*
X014600Y009600D02*
X015400Y010400D01*
X013610Y009900D02*
X013612Y009939D01*
X013618Y009977D01*
X013627Y010015D01*
X013641Y010051D01*
X013657Y010087D01*
X013678Y010120D01*
X013701Y010151D01*
X013728Y010179D01*
X013757Y010205D01*
X013788Y010228D01*
X013822Y010247D01*
X013858Y010263D01*
X013894Y010275D01*
X013932Y010284D01*
X013971Y010289D01*
X014010Y010290D01*
X014048Y010287D01*
X014087Y010280D01*
X014124Y010270D01*
X014160Y010255D01*
X014195Y010238D01*
X014228Y010217D01*
X014258Y010192D01*
X014286Y010165D01*
X014311Y010135D01*
X014333Y010103D01*
X014351Y010069D01*
X014366Y010033D01*
X014378Y009996D01*
X014386Y009958D01*
X014390Y009919D01*
X014390Y009881D01*
X014386Y009842D01*
X014378Y009804D01*
X014366Y009767D01*
X014351Y009731D01*
X014333Y009697D01*
X014311Y009665D01*
X014286Y009635D01*
X014258Y009608D01*
X014228Y009583D01*
X014195Y009562D01*
X014160Y009545D01*
X014124Y009530D01*
X014087Y009520D01*
X014048Y009513D01*
X014010Y009510D01*
X013971Y009511D01*
X013932Y009516D01*
X013894Y009525D01*
X013858Y009537D01*
X013822Y009553D01*
X013788Y009572D01*
X013757Y009595D01*
X013728Y009621D01*
X013701Y009649D01*
X013678Y009680D01*
X013657Y009713D01*
X013641Y009749D01*
X013627Y009785D01*
X013618Y009823D01*
X013612Y009861D01*
X013610Y009900D01*
X013600Y009500D02*
X014400Y010300D01*
X012610Y010000D02*
X012612Y010039D01*
X012618Y010077D01*
X012627Y010115D01*
X012641Y010151D01*
X012657Y010187D01*
X012678Y010220D01*
X012701Y010251D01*
X012728Y010279D01*
X012757Y010305D01*
X012788Y010328D01*
X012822Y010347D01*
X012858Y010363D01*
X012894Y010375D01*
X012932Y010384D01*
X012971Y010389D01*
X013010Y010390D01*
X013048Y010387D01*
X013087Y010380D01*
X013124Y010370D01*
X013160Y010355D01*
X013195Y010338D01*
X013228Y010317D01*
X013258Y010292D01*
X013286Y010265D01*
X013311Y010235D01*
X013333Y010203D01*
X013351Y010169D01*
X013366Y010133D01*
X013378Y010096D01*
X013386Y010058D01*
X013390Y010019D01*
X013390Y009981D01*
X013386Y009942D01*
X013378Y009904D01*
X013366Y009867D01*
X013351Y009831D01*
X013333Y009797D01*
X013311Y009765D01*
X013286Y009735D01*
X013258Y009708D01*
X013228Y009683D01*
X013195Y009662D01*
X013160Y009645D01*
X013124Y009630D01*
X013087Y009620D01*
X013048Y009613D01*
X013010Y009610D01*
X012971Y009611D01*
X012932Y009616D01*
X012894Y009625D01*
X012858Y009637D01*
X012822Y009653D01*
X012788Y009672D01*
X012757Y009695D01*
X012728Y009721D01*
X012701Y009749D01*
X012678Y009780D01*
X012657Y009813D01*
X012641Y009849D01*
X012627Y009885D01*
X012618Y009923D01*
X012612Y009961D01*
X012610Y010000D01*
X012600Y009600D02*
X013400Y010400D01*
X012610Y012500D02*
X012612Y012539D01*
X012618Y012577D01*
X012627Y012615D01*
X012641Y012651D01*
X012657Y012687D01*
X012678Y012720D01*
X012701Y012751D01*
X012728Y012779D01*
X012757Y012805D01*
X012788Y012828D01*
X012822Y012847D01*
X012858Y012863D01*
X012894Y012875D01*
X012932Y012884D01*
X012971Y012889D01*
X013010Y012890D01*
X013048Y012887D01*
X013087Y012880D01*
X013124Y012870D01*
X013160Y012855D01*
X013195Y012838D01*
X013228Y012817D01*
X013258Y012792D01*
X013286Y012765D01*
X013311Y012735D01*
X013333Y012703D01*
X013351Y012669D01*
X013366Y012633D01*
X013378Y012596D01*
X013386Y012558D01*
X013390Y012519D01*
X013390Y012481D01*
X013386Y012442D01*
X013378Y012404D01*
X013366Y012367D01*
X013351Y012331D01*
X013333Y012297D01*
X013311Y012265D01*
X013286Y012235D01*
X013258Y012208D01*
X013228Y012183D01*
X013195Y012162D01*
X013160Y012145D01*
X013124Y012130D01*
X013087Y012120D01*
X013048Y012113D01*
X013010Y012110D01*
X012971Y012111D01*
X012932Y012116D01*
X012894Y012125D01*
X012858Y012137D01*
X012822Y012153D01*
X012788Y012172D01*
X012757Y012195D01*
X012728Y012221D01*
X012701Y012249D01*
X012678Y012280D01*
X012657Y012313D01*
X012641Y012349D01*
X012627Y012385D01*
X012618Y012423D01*
X012612Y012461D01*
X012610Y012500D01*
X012600Y012100D02*
X013400Y012900D01*
X013610Y012500D02*
X013612Y012539D01*
X013618Y012577D01*
X013627Y012615D01*
X013641Y012651D01*
X013657Y012687D01*
X013678Y012720D01*
X013701Y012751D01*
X013728Y012779D01*
X013757Y012805D01*
X013788Y012828D01*
X013822Y012847D01*
X013858Y012863D01*
X013894Y012875D01*
X013932Y012884D01*
X013971Y012889D01*
X014010Y012890D01*
X014048Y012887D01*
X014087Y012880D01*
X014124Y012870D01*
X014160Y012855D01*
X014195Y012838D01*
X014228Y012817D01*
X014258Y012792D01*
X014286Y012765D01*
X014311Y012735D01*
X014333Y012703D01*
X014351Y012669D01*
X014366Y012633D01*
X014378Y012596D01*
X014386Y012558D01*
X014390Y012519D01*
X014390Y012481D01*
X014386Y012442D01*
X014378Y012404D01*
X014366Y012367D01*
X014351Y012331D01*
X014333Y012297D01*
X014311Y012265D01*
X014286Y012235D01*
X014258Y012208D01*
X014228Y012183D01*
X014195Y012162D01*
X014160Y012145D01*
X014124Y012130D01*
X014087Y012120D01*
X014048Y012113D01*
X014010Y012110D01*
X013971Y012111D01*
X013932Y012116D01*
X013894Y012125D01*
X013858Y012137D01*
X013822Y012153D01*
X013788Y012172D01*
X013757Y012195D01*
X013728Y012221D01*
X013701Y012249D01*
X013678Y012280D01*
X013657Y012313D01*
X013641Y012349D01*
X013627Y012385D01*
X013618Y012423D01*
X013612Y012461D01*
X013610Y012500D01*
X013600Y012100D02*
X014400Y012900D01*
X014610Y012500D02*
X014612Y012539D01*
X014618Y012577D01*
X014627Y012615D01*
X014641Y012651D01*
X014657Y012687D01*
X014678Y012720D01*
X014701Y012751D01*
X014728Y012779D01*
X014757Y012805D01*
X014788Y012828D01*
X014822Y012847D01*
X014858Y012863D01*
X014894Y012875D01*
X014932Y012884D01*
X014971Y012889D01*
X015010Y012890D01*
X015048Y012887D01*
X015087Y012880D01*
X015124Y012870D01*
X015160Y012855D01*
X015195Y012838D01*
X015228Y012817D01*
X015258Y012792D01*
X015286Y012765D01*
X015311Y012735D01*
X015333Y012703D01*
X015351Y012669D01*
X015366Y012633D01*
X015378Y012596D01*
X015386Y012558D01*
X015390Y012519D01*
X015390Y012481D01*
X015386Y012442D01*
X015378Y012404D01*
X015366Y012367D01*
X015351Y012331D01*
X015333Y012297D01*
X015311Y012265D01*
X015286Y012235D01*
X015258Y012208D01*
X015228Y012183D01*
X015195Y012162D01*
X015160Y012145D01*
X015124Y012130D01*
X015087Y012120D01*
X015048Y012113D01*
X015010Y012110D01*
X014971Y012111D01*
X014932Y012116D01*
X014894Y012125D01*
X014858Y012137D01*
X014822Y012153D01*
X014788Y012172D01*
X014757Y012195D01*
X014728Y012221D01*
X014701Y012249D01*
X014678Y012280D01*
X014657Y012313D01*
X014641Y012349D01*
X014627Y012385D01*
X014618Y012423D01*
X014612Y012461D01*
X014610Y012500D01*
X014600Y012100D02*
X015400Y012900D01*
X017610Y015500D02*
X017612Y015539D01*
X017618Y015577D01*
X017627Y015615D01*
X017641Y015651D01*
X017657Y015687D01*
X017678Y015720D01*
X017701Y015751D01*
X017728Y015779D01*
X017757Y015805D01*
X017788Y015828D01*
X017822Y015847D01*
X017858Y015863D01*
X017894Y015875D01*
X017932Y015884D01*
X017971Y015889D01*
X018010Y015890D01*
X018048Y015887D01*
X018087Y015880D01*
X018124Y015870D01*
X018160Y015855D01*
X018195Y015838D01*
X018228Y015817D01*
X018258Y015792D01*
X018286Y015765D01*
X018311Y015735D01*
X018333Y015703D01*
X018351Y015669D01*
X018366Y015633D01*
X018378Y015596D01*
X018386Y015558D01*
X018390Y015519D01*
X018390Y015481D01*
X018386Y015442D01*
X018378Y015404D01*
X018366Y015367D01*
X018351Y015331D01*
X018333Y015297D01*
X018311Y015265D01*
X018286Y015235D01*
X018258Y015208D01*
X018228Y015183D01*
X018195Y015162D01*
X018160Y015145D01*
X018124Y015130D01*
X018087Y015120D01*
X018048Y015113D01*
X018010Y015110D01*
X017971Y015111D01*
X017932Y015116D01*
X017894Y015125D01*
X017858Y015137D01*
X017822Y015153D01*
X017788Y015172D01*
X017757Y015195D01*
X017728Y015221D01*
X017701Y015249D01*
X017678Y015280D01*
X017657Y015313D01*
X017641Y015349D01*
X017627Y015385D01*
X017618Y015423D01*
X017612Y015461D01*
X017610Y015500D01*
X017600Y015100D02*
X018400Y015900D01*
X018610Y015500D02*
X018612Y015539D01*
X018618Y015577D01*
X018627Y015615D01*
X018641Y015651D01*
X018657Y015687D01*
X018678Y015720D01*
X018701Y015751D01*
X018728Y015779D01*
X018757Y015805D01*
X018788Y015828D01*
X018822Y015847D01*
X018858Y015863D01*
X018894Y015875D01*
X018932Y015884D01*
X018971Y015889D01*
X019010Y015890D01*
X019048Y015887D01*
X019087Y015880D01*
X019124Y015870D01*
X019160Y015855D01*
X019195Y015838D01*
X019228Y015817D01*
X019258Y015792D01*
X019286Y015765D01*
X019311Y015735D01*
X019333Y015703D01*
X019351Y015669D01*
X019366Y015633D01*
X019378Y015596D01*
X019386Y015558D01*
X019390Y015519D01*
X019390Y015481D01*
X019386Y015442D01*
X019378Y015404D01*
X019366Y015367D01*
X019351Y015331D01*
X019333Y015297D01*
X019311Y015265D01*
X019286Y015235D01*
X019258Y015208D01*
X019228Y015183D01*
X019195Y015162D01*
X019160Y015145D01*
X019124Y015130D01*
X019087Y015120D01*
X019048Y015113D01*
X019010Y015110D01*
X018971Y015111D01*
X018932Y015116D01*
X018894Y015125D01*
X018858Y015137D01*
X018822Y015153D01*
X018788Y015172D01*
X018757Y015195D01*
X018728Y015221D01*
X018701Y015249D01*
X018678Y015280D01*
X018657Y015313D01*
X018641Y015349D01*
X018627Y015385D01*
X018618Y015423D01*
X018612Y015461D01*
X018610Y015500D01*
X018600Y015100D02*
X019400Y015900D01*
X019610Y015500D02*
X019612Y015539D01*
X019618Y015577D01*
X019627Y015615D01*
X019641Y015651D01*
X019657Y015687D01*
X019678Y015720D01*
X019701Y015751D01*
X019728Y015779D01*
X019757Y015805D01*
X019788Y015828D01*
X019822Y015847D01*
X019858Y015863D01*
X019894Y015875D01*
X019932Y015884D01*
X019971Y015889D01*
X020010Y015890D01*
X020048Y015887D01*
X020087Y015880D01*
X020124Y015870D01*
X020160Y015855D01*
X020195Y015838D01*
X020228Y015817D01*
X020258Y015792D01*
X020286Y015765D01*
X020311Y015735D01*
X020333Y015703D01*
X020351Y015669D01*
X020366Y015633D01*
X020378Y015596D01*
X020386Y015558D01*
X020390Y015519D01*
X020390Y015481D01*
X020386Y015442D01*
X020378Y015404D01*
X020366Y015367D01*
X020351Y015331D01*
X020333Y015297D01*
X020311Y015265D01*
X020286Y015235D01*
X020258Y015208D01*
X020228Y015183D01*
X020195Y015162D01*
X020160Y015145D01*
X020124Y015130D01*
X020087Y015120D01*
X020048Y015113D01*
X020010Y015110D01*
X019971Y015111D01*
X019932Y015116D01*
X019894Y015125D01*
X019858Y015137D01*
X019822Y015153D01*
X019788Y015172D01*
X019757Y015195D01*
X019728Y015221D01*
X019701Y015249D01*
X019678Y015280D01*
X019657Y015313D01*
X019641Y015349D01*
X019627Y015385D01*
X019618Y015423D01*
X019612Y015461D01*
X019610Y015500D01*
X019600Y015100D02*
X020400Y015900D01*
X014610Y018500D02*
X014612Y018539D01*
X014618Y018577D01*
X014627Y018615D01*
X014641Y018651D01*
X014657Y018687D01*
X014678Y018720D01*
X014701Y018751D01*
X014728Y018779D01*
X014757Y018805D01*
X014788Y018828D01*
X014822Y018847D01*
X014858Y018863D01*
X014894Y018875D01*
X014932Y018884D01*
X014971Y018889D01*
X015010Y018890D01*
X015048Y018887D01*
X015087Y018880D01*
X015124Y018870D01*
X015160Y018855D01*
X015195Y018838D01*
X015228Y018817D01*
X015258Y018792D01*
X015286Y018765D01*
X015311Y018735D01*
X015333Y018703D01*
X015351Y018669D01*
X015366Y018633D01*
X015378Y018596D01*
X015386Y018558D01*
X015390Y018519D01*
X015390Y018481D01*
X015386Y018442D01*
X015378Y018404D01*
X015366Y018367D01*
X015351Y018331D01*
X015333Y018297D01*
X015311Y018265D01*
X015286Y018235D01*
X015258Y018208D01*
X015228Y018183D01*
X015195Y018162D01*
X015160Y018145D01*
X015124Y018130D01*
X015087Y018120D01*
X015048Y018113D01*
X015010Y018110D01*
X014971Y018111D01*
X014932Y018116D01*
X014894Y018125D01*
X014858Y018137D01*
X014822Y018153D01*
X014788Y018172D01*
X014757Y018195D01*
X014728Y018221D01*
X014701Y018249D01*
X014678Y018280D01*
X014657Y018313D01*
X014641Y018349D01*
X014627Y018385D01*
X014618Y018423D01*
X014612Y018461D01*
X014610Y018500D01*
X014600Y018100D02*
X015400Y018900D01*
X013610Y018500D02*
X013612Y018539D01*
X013618Y018577D01*
X013627Y018615D01*
X013641Y018651D01*
X013657Y018687D01*
X013678Y018720D01*
X013701Y018751D01*
X013728Y018779D01*
X013757Y018805D01*
X013788Y018828D01*
X013822Y018847D01*
X013858Y018863D01*
X013894Y018875D01*
X013932Y018884D01*
X013971Y018889D01*
X014010Y018890D01*
X014048Y018887D01*
X014087Y018880D01*
X014124Y018870D01*
X014160Y018855D01*
X014195Y018838D01*
X014228Y018817D01*
X014258Y018792D01*
X014286Y018765D01*
X014311Y018735D01*
X014333Y018703D01*
X014351Y018669D01*
X014366Y018633D01*
X014378Y018596D01*
X014386Y018558D01*
X014390Y018519D01*
X014390Y018481D01*
X014386Y018442D01*
X014378Y018404D01*
X014366Y018367D01*
X014351Y018331D01*
X014333Y018297D01*
X014311Y018265D01*
X014286Y018235D01*
X014258Y018208D01*
X014228Y018183D01*
X014195Y018162D01*
X014160Y018145D01*
X014124Y018130D01*
X014087Y018120D01*
X014048Y018113D01*
X014010Y018110D01*
X013971Y018111D01*
X013932Y018116D01*
X013894Y018125D01*
X013858Y018137D01*
X013822Y018153D01*
X013788Y018172D01*
X013757Y018195D01*
X013728Y018221D01*
X013701Y018249D01*
X013678Y018280D01*
X013657Y018313D01*
X013641Y018349D01*
X013627Y018385D01*
X013618Y018423D01*
X013612Y018461D01*
X013610Y018500D01*
X013600Y018100D02*
X014400Y018900D01*
X012610Y018500D02*
X012612Y018539D01*
X012618Y018577D01*
X012627Y018615D01*
X012641Y018651D01*
X012657Y018687D01*
X012678Y018720D01*
X012701Y018751D01*
X012728Y018779D01*
X012757Y018805D01*
X012788Y018828D01*
X012822Y018847D01*
X012858Y018863D01*
X012894Y018875D01*
X012932Y018884D01*
X012971Y018889D01*
X013010Y018890D01*
X013048Y018887D01*
X013087Y018880D01*
X013124Y018870D01*
X013160Y018855D01*
X013195Y018838D01*
X013228Y018817D01*
X013258Y018792D01*
X013286Y018765D01*
X013311Y018735D01*
X013333Y018703D01*
X013351Y018669D01*
X013366Y018633D01*
X013378Y018596D01*
X013386Y018558D01*
X013390Y018519D01*
X013390Y018481D01*
X013386Y018442D01*
X013378Y018404D01*
X013366Y018367D01*
X013351Y018331D01*
X013333Y018297D01*
X013311Y018265D01*
X013286Y018235D01*
X013258Y018208D01*
X013228Y018183D01*
X013195Y018162D01*
X013160Y018145D01*
X013124Y018130D01*
X013087Y018120D01*
X013048Y018113D01*
X013010Y018110D01*
X012971Y018111D01*
X012932Y018116D01*
X012894Y018125D01*
X012858Y018137D01*
X012822Y018153D01*
X012788Y018172D01*
X012757Y018195D01*
X012728Y018221D01*
X012701Y018249D01*
X012678Y018280D01*
X012657Y018313D01*
X012641Y018349D01*
X012627Y018385D01*
X012618Y018423D01*
X012612Y018461D01*
X012610Y018500D01*
X012600Y018100D02*
X013400Y018900D01*
X012500Y023100D02*
X013300Y023900D01*
X013300Y023100D01*
X012500Y023900D01*
X012500Y023100D01*
X012300Y023900D02*
X011500Y023100D01*
X012300Y023100D02*
X012300Y023900D01*
X012300Y023100D02*
X011500Y023900D01*
X011500Y023100D01*
X013500Y023100D02*
X014300Y023900D01*
X014300Y023100D01*
X013500Y023900D01*
X013500Y023100D01*
X014500Y023100D02*
X015300Y023900D01*
X015300Y023100D01*
X014500Y023900D01*
X014500Y023100D01*
X015500Y023100D02*
X016300Y023900D01*
X016300Y023100D01*
X015500Y023900D01*
X015500Y023100D01*
X016500Y023100D02*
X017300Y023900D01*
X017300Y023100D01*
X016500Y023900D01*
X016500Y023100D01*
X017500Y023100D02*
X018300Y023900D01*
X018300Y023100D01*
X017500Y023900D01*
X017500Y023100D01*
X018500Y023100D02*
X019300Y023900D01*
X019300Y023100D01*
X018500Y023900D01*
X018500Y023100D01*
X019500Y023100D02*
X020300Y023900D01*
X020300Y023100D01*
X019500Y023900D01*
X019500Y023100D01*
X020500Y023100D02*
X021300Y023900D01*
X021300Y023100D01*
X020500Y023900D01*
X020500Y023100D01*
X022100Y023100D02*
X022900Y023900D01*
X022900Y023100D01*
X022100Y023900D01*
X022100Y023100D01*
X023100Y023100D02*
X023900Y023900D01*
X023900Y023100D01*
X023100Y023900D01*
X023100Y023100D01*
X024100Y023100D02*
X024900Y023900D01*
X024900Y023100D01*
X024100Y023900D01*
X024100Y023100D01*
X025100Y023100D02*
X025900Y023900D01*
X025900Y023100D01*
X025100Y023900D01*
X025100Y023100D01*
X026100Y023100D02*
X026900Y023900D01*
X026900Y023100D01*
X026100Y023900D01*
X026100Y023100D01*
X027100Y023100D02*
X027900Y023900D01*
X027900Y023100D01*
X027100Y023900D01*
X027100Y023100D01*
X028100Y023100D02*
X028900Y023900D01*
X028900Y023100D01*
X028100Y023900D01*
X028100Y023100D01*
X029100Y023100D02*
X029900Y023900D01*
X029900Y023100D01*
X029100Y023900D01*
X029100Y023100D01*
X013660Y007500D02*
X013662Y007539D01*
X013668Y007577D01*
X013677Y007615D01*
X013691Y007651D01*
X013707Y007687D01*
X013728Y007720D01*
X013751Y007751D01*
X013778Y007779D01*
X013807Y007805D01*
X013838Y007828D01*
X013872Y007847D01*
X013908Y007863D01*
X013944Y007875D01*
X013982Y007884D01*
X014021Y007889D01*
X014060Y007890D01*
X014098Y007887D01*
X014137Y007880D01*
X014174Y007870D01*
X014210Y007855D01*
X014245Y007838D01*
X014278Y007817D01*
X014308Y007792D01*
X014336Y007765D01*
X014361Y007735D01*
X014383Y007703D01*
X014401Y007669D01*
X014416Y007633D01*
X014428Y007596D01*
X014436Y007558D01*
X014440Y007519D01*
X014440Y007481D01*
X014436Y007442D01*
X014428Y007404D01*
X014416Y007367D01*
X014401Y007331D01*
X014383Y007297D01*
X014361Y007265D01*
X014336Y007235D01*
X014308Y007208D01*
X014278Y007183D01*
X014245Y007162D01*
X014210Y007145D01*
X014174Y007130D01*
X014137Y007120D01*
X014098Y007113D01*
X014060Y007110D01*
X014021Y007111D01*
X013982Y007116D01*
X013944Y007125D01*
X013908Y007137D01*
X013872Y007153D01*
X013838Y007172D01*
X013807Y007195D01*
X013778Y007221D01*
X013751Y007249D01*
X013728Y007280D01*
X013707Y007313D01*
X013691Y007349D01*
X013677Y007385D01*
X013668Y007423D01*
X013662Y007461D01*
X013660Y007500D01*
X013650Y007100D02*
X014450Y007900D01*
X012560Y007500D02*
X012562Y007539D01*
X012568Y007577D01*
X012577Y007615D01*
X012591Y007651D01*
X012607Y007687D01*
X012628Y007720D01*
X012651Y007751D01*
X012678Y007779D01*
X012707Y007805D01*
X012738Y007828D01*
X012772Y007847D01*
X012808Y007863D01*
X012844Y007875D01*
X012882Y007884D01*
X012921Y007889D01*
X012960Y007890D01*
X012998Y007887D01*
X013037Y007880D01*
X013074Y007870D01*
X013110Y007855D01*
X013145Y007838D01*
X013178Y007817D01*
X013208Y007792D01*
X013236Y007765D01*
X013261Y007735D01*
X013283Y007703D01*
X013301Y007669D01*
X013316Y007633D01*
X013328Y007596D01*
X013336Y007558D01*
X013340Y007519D01*
X013340Y007481D01*
X013336Y007442D01*
X013328Y007404D01*
X013316Y007367D01*
X013301Y007331D01*
X013283Y007297D01*
X013261Y007265D01*
X013236Y007235D01*
X013208Y007208D01*
X013178Y007183D01*
X013145Y007162D01*
X013110Y007145D01*
X013074Y007130D01*
X013037Y007120D01*
X012998Y007113D01*
X012960Y007110D01*
X012921Y007111D01*
X012882Y007116D01*
X012844Y007125D01*
X012808Y007137D01*
X012772Y007153D01*
X012738Y007172D01*
X012707Y007195D01*
X012678Y007221D01*
X012651Y007249D01*
X012628Y007280D01*
X012607Y007313D01*
X012591Y007349D01*
X012577Y007385D01*
X012568Y007423D01*
X012562Y007461D01*
X012560Y007500D01*
X012550Y007100D02*
X013350Y007900D01*
M02*
