G75*
%MOIN*%
%OFA0B0*%
%FSLAX25Y25*%
%IPPOS*%
%LPD*%
%AMOC8*
5,1,8,0,0,1.08239X$1,22.5*
%
%ADD10C,0.00100*%
D10*
X0125600Y0050000D02*
X0125602Y0050124D01*
X0125608Y0050249D01*
X0125618Y0050373D01*
X0125632Y0050496D01*
X0125649Y0050619D01*
X0125671Y0050742D01*
X0125697Y0050864D01*
X0125726Y0050984D01*
X0125760Y0051104D01*
X0125797Y0051223D01*
X0125838Y0051340D01*
X0125882Y0051456D01*
X0125930Y0051571D01*
X0125982Y0051684D01*
X0126038Y0051795D01*
X0126097Y0051905D01*
X0126159Y0052012D01*
X0126225Y0052118D01*
X0126294Y0052221D01*
X0126367Y0052322D01*
X0126443Y0052421D01*
X0126521Y0052517D01*
X0126603Y0052611D01*
X0126688Y0052702D01*
X0126775Y0052791D01*
X0126866Y0052876D01*
X0126959Y0052959D01*
X0127055Y0053038D01*
X0127153Y0053114D01*
X0127253Y0053188D01*
X0127356Y0053258D01*
X0127461Y0053324D01*
X0127568Y0053388D01*
X0127677Y0053448D01*
X0127788Y0053504D01*
X0127900Y0053557D01*
X0128015Y0053606D01*
X0128130Y0053652D01*
X0128248Y0053693D01*
X0128366Y0053732D01*
X0128486Y0053766D01*
X0128606Y0053796D01*
X0128728Y0053823D01*
X0128850Y0053845D01*
X0128973Y0053864D01*
X0129096Y0053879D01*
X0129220Y0053890D01*
X0129345Y0053897D01*
X0129469Y0053900D01*
X0129593Y0053899D01*
X0129718Y0053894D01*
X0129842Y0053885D01*
X0129965Y0053872D01*
X0130089Y0053855D01*
X0130211Y0053835D01*
X0130333Y0053810D01*
X0130454Y0053781D01*
X0130574Y0053749D01*
X0130693Y0053713D01*
X0130811Y0053673D01*
X0130928Y0053629D01*
X0131043Y0053582D01*
X0131156Y0053531D01*
X0131268Y0053476D01*
X0131378Y0053418D01*
X0131486Y0053357D01*
X0131592Y0053292D01*
X0131696Y0053223D01*
X0131797Y0053152D01*
X0131897Y0053077D01*
X0131994Y0052999D01*
X0132088Y0052918D01*
X0132180Y0052834D01*
X0132269Y0052747D01*
X0132355Y0052657D01*
X0132438Y0052565D01*
X0132518Y0052470D01*
X0132596Y0052372D01*
X0132670Y0052272D01*
X0132741Y0052170D01*
X0132808Y0052066D01*
X0132872Y0051959D01*
X0132933Y0051850D01*
X0132990Y0051740D01*
X0133044Y0051628D01*
X0133094Y0051514D01*
X0133141Y0051399D01*
X0133183Y0051282D01*
X0133222Y0051164D01*
X0133258Y0051044D01*
X0133289Y0050924D01*
X0133316Y0050803D01*
X0133340Y0050681D01*
X0133360Y0050558D01*
X0133376Y0050434D01*
X0133388Y0050311D01*
X0133396Y0050187D01*
X0133400Y0050062D01*
X0133400Y0049938D01*
X0133396Y0049813D01*
X0133388Y0049689D01*
X0133376Y0049566D01*
X0133360Y0049442D01*
X0133340Y0049319D01*
X0133316Y0049197D01*
X0133289Y0049076D01*
X0133258Y0048956D01*
X0133222Y0048836D01*
X0133183Y0048718D01*
X0133141Y0048601D01*
X0133094Y0048486D01*
X0133044Y0048372D01*
X0132990Y0048260D01*
X0132933Y0048150D01*
X0132872Y0048041D01*
X0132808Y0047934D01*
X0132741Y0047830D01*
X0132670Y0047728D01*
X0132596Y0047628D01*
X0132518Y0047530D01*
X0132438Y0047435D01*
X0132355Y0047343D01*
X0132269Y0047253D01*
X0132180Y0047166D01*
X0132088Y0047082D01*
X0131994Y0047001D01*
X0131897Y0046923D01*
X0131797Y0046848D01*
X0131696Y0046777D01*
X0131592Y0046708D01*
X0131486Y0046643D01*
X0131378Y0046582D01*
X0131268Y0046524D01*
X0131156Y0046469D01*
X0131043Y0046418D01*
X0130928Y0046371D01*
X0130811Y0046327D01*
X0130693Y0046287D01*
X0130574Y0046251D01*
X0130454Y0046219D01*
X0130333Y0046190D01*
X0130211Y0046165D01*
X0130089Y0046145D01*
X0129965Y0046128D01*
X0129842Y0046115D01*
X0129718Y0046106D01*
X0129593Y0046101D01*
X0129469Y0046100D01*
X0129345Y0046103D01*
X0129220Y0046110D01*
X0129096Y0046121D01*
X0128973Y0046136D01*
X0128850Y0046155D01*
X0128728Y0046177D01*
X0128606Y0046204D01*
X0128486Y0046234D01*
X0128366Y0046268D01*
X0128248Y0046307D01*
X0128130Y0046348D01*
X0128015Y0046394D01*
X0127900Y0046443D01*
X0127788Y0046496D01*
X0127677Y0046552D01*
X0127568Y0046612D01*
X0127461Y0046676D01*
X0127356Y0046742D01*
X0127253Y0046812D01*
X0127153Y0046886D01*
X0127055Y0046962D01*
X0126959Y0047041D01*
X0126866Y0047124D01*
X0126775Y0047209D01*
X0126688Y0047298D01*
X0126603Y0047389D01*
X0126521Y0047483D01*
X0126443Y0047579D01*
X0126367Y0047678D01*
X0126294Y0047779D01*
X0126225Y0047882D01*
X0126159Y0047988D01*
X0126097Y0048095D01*
X0126038Y0048205D01*
X0125982Y0048316D01*
X0125930Y0048429D01*
X0125882Y0048544D01*
X0125838Y0048660D01*
X0125797Y0048777D01*
X0125760Y0048896D01*
X0125726Y0049016D01*
X0125697Y0049136D01*
X0125671Y0049258D01*
X0125649Y0049381D01*
X0125632Y0049504D01*
X0125618Y0049627D01*
X0125608Y0049751D01*
X0125602Y0049876D01*
X0125600Y0050000D01*
X0125500Y0046000D02*
X0133500Y0054000D01*
X0136600Y0050000D02*
X0136602Y0050124D01*
X0136608Y0050249D01*
X0136618Y0050373D01*
X0136632Y0050496D01*
X0136649Y0050619D01*
X0136671Y0050742D01*
X0136697Y0050864D01*
X0136726Y0050984D01*
X0136760Y0051104D01*
X0136797Y0051223D01*
X0136838Y0051340D01*
X0136882Y0051456D01*
X0136930Y0051571D01*
X0136982Y0051684D01*
X0137038Y0051795D01*
X0137097Y0051905D01*
X0137159Y0052012D01*
X0137225Y0052118D01*
X0137294Y0052221D01*
X0137367Y0052322D01*
X0137443Y0052421D01*
X0137521Y0052517D01*
X0137603Y0052611D01*
X0137688Y0052702D01*
X0137775Y0052791D01*
X0137866Y0052876D01*
X0137959Y0052959D01*
X0138055Y0053038D01*
X0138153Y0053114D01*
X0138253Y0053188D01*
X0138356Y0053258D01*
X0138461Y0053324D01*
X0138568Y0053388D01*
X0138677Y0053448D01*
X0138788Y0053504D01*
X0138900Y0053557D01*
X0139015Y0053606D01*
X0139130Y0053652D01*
X0139248Y0053693D01*
X0139366Y0053732D01*
X0139486Y0053766D01*
X0139606Y0053796D01*
X0139728Y0053823D01*
X0139850Y0053845D01*
X0139973Y0053864D01*
X0140096Y0053879D01*
X0140220Y0053890D01*
X0140345Y0053897D01*
X0140469Y0053900D01*
X0140593Y0053899D01*
X0140718Y0053894D01*
X0140842Y0053885D01*
X0140965Y0053872D01*
X0141089Y0053855D01*
X0141211Y0053835D01*
X0141333Y0053810D01*
X0141454Y0053781D01*
X0141574Y0053749D01*
X0141693Y0053713D01*
X0141811Y0053673D01*
X0141928Y0053629D01*
X0142043Y0053582D01*
X0142156Y0053531D01*
X0142268Y0053476D01*
X0142378Y0053418D01*
X0142486Y0053357D01*
X0142592Y0053292D01*
X0142696Y0053223D01*
X0142797Y0053152D01*
X0142897Y0053077D01*
X0142994Y0052999D01*
X0143088Y0052918D01*
X0143180Y0052834D01*
X0143269Y0052747D01*
X0143355Y0052657D01*
X0143438Y0052565D01*
X0143518Y0052470D01*
X0143596Y0052372D01*
X0143670Y0052272D01*
X0143741Y0052170D01*
X0143808Y0052066D01*
X0143872Y0051959D01*
X0143933Y0051850D01*
X0143990Y0051740D01*
X0144044Y0051628D01*
X0144094Y0051514D01*
X0144141Y0051399D01*
X0144183Y0051282D01*
X0144222Y0051164D01*
X0144258Y0051044D01*
X0144289Y0050924D01*
X0144316Y0050803D01*
X0144340Y0050681D01*
X0144360Y0050558D01*
X0144376Y0050434D01*
X0144388Y0050311D01*
X0144396Y0050187D01*
X0144400Y0050062D01*
X0144400Y0049938D01*
X0144396Y0049813D01*
X0144388Y0049689D01*
X0144376Y0049566D01*
X0144360Y0049442D01*
X0144340Y0049319D01*
X0144316Y0049197D01*
X0144289Y0049076D01*
X0144258Y0048956D01*
X0144222Y0048836D01*
X0144183Y0048718D01*
X0144141Y0048601D01*
X0144094Y0048486D01*
X0144044Y0048372D01*
X0143990Y0048260D01*
X0143933Y0048150D01*
X0143872Y0048041D01*
X0143808Y0047934D01*
X0143741Y0047830D01*
X0143670Y0047728D01*
X0143596Y0047628D01*
X0143518Y0047530D01*
X0143438Y0047435D01*
X0143355Y0047343D01*
X0143269Y0047253D01*
X0143180Y0047166D01*
X0143088Y0047082D01*
X0142994Y0047001D01*
X0142897Y0046923D01*
X0142797Y0046848D01*
X0142696Y0046777D01*
X0142592Y0046708D01*
X0142486Y0046643D01*
X0142378Y0046582D01*
X0142268Y0046524D01*
X0142156Y0046469D01*
X0142043Y0046418D01*
X0141928Y0046371D01*
X0141811Y0046327D01*
X0141693Y0046287D01*
X0141574Y0046251D01*
X0141454Y0046219D01*
X0141333Y0046190D01*
X0141211Y0046165D01*
X0141089Y0046145D01*
X0140965Y0046128D01*
X0140842Y0046115D01*
X0140718Y0046106D01*
X0140593Y0046101D01*
X0140469Y0046100D01*
X0140345Y0046103D01*
X0140220Y0046110D01*
X0140096Y0046121D01*
X0139973Y0046136D01*
X0139850Y0046155D01*
X0139728Y0046177D01*
X0139606Y0046204D01*
X0139486Y0046234D01*
X0139366Y0046268D01*
X0139248Y0046307D01*
X0139130Y0046348D01*
X0139015Y0046394D01*
X0138900Y0046443D01*
X0138788Y0046496D01*
X0138677Y0046552D01*
X0138568Y0046612D01*
X0138461Y0046676D01*
X0138356Y0046742D01*
X0138253Y0046812D01*
X0138153Y0046886D01*
X0138055Y0046962D01*
X0137959Y0047041D01*
X0137866Y0047124D01*
X0137775Y0047209D01*
X0137688Y0047298D01*
X0137603Y0047389D01*
X0137521Y0047483D01*
X0137443Y0047579D01*
X0137367Y0047678D01*
X0137294Y0047779D01*
X0137225Y0047882D01*
X0137159Y0047988D01*
X0137097Y0048095D01*
X0137038Y0048205D01*
X0136982Y0048316D01*
X0136930Y0048429D01*
X0136882Y0048544D01*
X0136838Y0048660D01*
X0136797Y0048777D01*
X0136760Y0048896D01*
X0136726Y0049016D01*
X0136697Y0049136D01*
X0136671Y0049258D01*
X0136649Y0049381D01*
X0136632Y0049504D01*
X0136618Y0049627D01*
X0136608Y0049751D01*
X0136602Y0049876D01*
X0136600Y0050000D01*
X0136500Y0046000D02*
X0144500Y0054000D01*
X0151000Y0041000D02*
X0159000Y0049000D01*
X0159000Y0041000D01*
X0151000Y0049000D01*
X0151000Y0041000D01*
X0161000Y0041000D02*
X0169000Y0049000D01*
X0169000Y0041000D01*
X0161000Y0049000D01*
X0161000Y0041000D01*
X0171000Y0041000D02*
X0179000Y0049000D01*
X0179000Y0041000D01*
X0171000Y0049000D01*
X0171000Y0041000D01*
X0181000Y0041000D02*
X0189000Y0049000D01*
X0189000Y0041000D01*
X0181000Y0049000D01*
X0181000Y0041000D01*
X0191000Y0041000D02*
X0199000Y0049000D01*
X0199000Y0041000D01*
X0191000Y0049000D01*
X0191000Y0041000D01*
X0201000Y0041000D02*
X0209000Y0049000D01*
X0209000Y0041000D01*
X0201000Y0049000D01*
X0201000Y0041000D01*
X0211000Y0041000D02*
X0219000Y0049000D01*
X0219000Y0041000D01*
X0211000Y0049000D01*
X0211000Y0041000D01*
X0221000Y0041000D02*
X0229000Y0049000D01*
X0229000Y0041000D01*
X0221000Y0049000D01*
X0221000Y0041000D01*
X0241000Y0041000D02*
X0249000Y0049000D01*
X0249000Y0041000D01*
X0241000Y0049000D01*
X0241000Y0041000D01*
X0251000Y0041000D02*
X0259000Y0049000D01*
X0259000Y0041000D01*
X0251000Y0049000D01*
X0251000Y0041000D01*
X0261000Y0041000D02*
X0269000Y0049000D01*
X0269000Y0041000D01*
X0261000Y0049000D01*
X0261000Y0041000D01*
X0271000Y0041000D02*
X0279000Y0049000D01*
X0279000Y0041000D01*
X0271000Y0049000D01*
X0271000Y0041000D01*
X0281000Y0041000D02*
X0289000Y0049000D01*
X0289000Y0041000D01*
X0281000Y0049000D01*
X0281000Y0041000D01*
X0291000Y0041000D02*
X0299000Y0049000D01*
X0299000Y0041000D01*
X0291000Y0049000D01*
X0291000Y0041000D01*
X0156100Y0099000D02*
X0156102Y0099124D01*
X0156108Y0099249D01*
X0156118Y0099373D01*
X0156132Y0099496D01*
X0156149Y0099619D01*
X0156171Y0099742D01*
X0156197Y0099864D01*
X0156226Y0099984D01*
X0156260Y0100104D01*
X0156297Y0100223D01*
X0156338Y0100340D01*
X0156382Y0100456D01*
X0156430Y0100571D01*
X0156482Y0100684D01*
X0156538Y0100795D01*
X0156597Y0100905D01*
X0156659Y0101012D01*
X0156725Y0101118D01*
X0156794Y0101221D01*
X0156867Y0101322D01*
X0156943Y0101421D01*
X0157021Y0101517D01*
X0157103Y0101611D01*
X0157188Y0101702D01*
X0157275Y0101791D01*
X0157366Y0101876D01*
X0157459Y0101959D01*
X0157555Y0102038D01*
X0157653Y0102114D01*
X0157753Y0102188D01*
X0157856Y0102258D01*
X0157961Y0102324D01*
X0158068Y0102388D01*
X0158177Y0102448D01*
X0158288Y0102504D01*
X0158400Y0102557D01*
X0158515Y0102606D01*
X0158630Y0102652D01*
X0158748Y0102693D01*
X0158866Y0102732D01*
X0158986Y0102766D01*
X0159106Y0102796D01*
X0159228Y0102823D01*
X0159350Y0102845D01*
X0159473Y0102864D01*
X0159596Y0102879D01*
X0159720Y0102890D01*
X0159845Y0102897D01*
X0159969Y0102900D01*
X0160093Y0102899D01*
X0160218Y0102894D01*
X0160342Y0102885D01*
X0160465Y0102872D01*
X0160589Y0102855D01*
X0160711Y0102835D01*
X0160833Y0102810D01*
X0160954Y0102781D01*
X0161074Y0102749D01*
X0161193Y0102713D01*
X0161311Y0102673D01*
X0161428Y0102629D01*
X0161543Y0102582D01*
X0161656Y0102531D01*
X0161768Y0102476D01*
X0161878Y0102418D01*
X0161986Y0102357D01*
X0162092Y0102292D01*
X0162196Y0102223D01*
X0162297Y0102152D01*
X0162397Y0102077D01*
X0162494Y0101999D01*
X0162588Y0101918D01*
X0162680Y0101834D01*
X0162769Y0101747D01*
X0162855Y0101657D01*
X0162938Y0101565D01*
X0163018Y0101470D01*
X0163096Y0101372D01*
X0163170Y0101272D01*
X0163241Y0101170D01*
X0163308Y0101066D01*
X0163372Y0100959D01*
X0163433Y0100850D01*
X0163490Y0100740D01*
X0163544Y0100628D01*
X0163594Y0100514D01*
X0163641Y0100399D01*
X0163683Y0100282D01*
X0163722Y0100164D01*
X0163758Y0100044D01*
X0163789Y0099924D01*
X0163816Y0099803D01*
X0163840Y0099681D01*
X0163860Y0099558D01*
X0163876Y0099434D01*
X0163888Y0099311D01*
X0163896Y0099187D01*
X0163900Y0099062D01*
X0163900Y0098938D01*
X0163896Y0098813D01*
X0163888Y0098689D01*
X0163876Y0098566D01*
X0163860Y0098442D01*
X0163840Y0098319D01*
X0163816Y0098197D01*
X0163789Y0098076D01*
X0163758Y0097956D01*
X0163722Y0097836D01*
X0163683Y0097718D01*
X0163641Y0097601D01*
X0163594Y0097486D01*
X0163544Y0097372D01*
X0163490Y0097260D01*
X0163433Y0097150D01*
X0163372Y0097041D01*
X0163308Y0096934D01*
X0163241Y0096830D01*
X0163170Y0096728D01*
X0163096Y0096628D01*
X0163018Y0096530D01*
X0162938Y0096435D01*
X0162855Y0096343D01*
X0162769Y0096253D01*
X0162680Y0096166D01*
X0162588Y0096082D01*
X0162494Y0096001D01*
X0162397Y0095923D01*
X0162297Y0095848D01*
X0162196Y0095777D01*
X0162092Y0095708D01*
X0161986Y0095643D01*
X0161878Y0095582D01*
X0161768Y0095524D01*
X0161656Y0095469D01*
X0161543Y0095418D01*
X0161428Y0095371D01*
X0161311Y0095327D01*
X0161193Y0095287D01*
X0161074Y0095251D01*
X0160954Y0095219D01*
X0160833Y0095190D01*
X0160711Y0095165D01*
X0160589Y0095145D01*
X0160465Y0095128D01*
X0160342Y0095115D01*
X0160218Y0095106D01*
X0160093Y0095101D01*
X0159969Y0095100D01*
X0159845Y0095103D01*
X0159720Y0095110D01*
X0159596Y0095121D01*
X0159473Y0095136D01*
X0159350Y0095155D01*
X0159228Y0095177D01*
X0159106Y0095204D01*
X0158986Y0095234D01*
X0158866Y0095268D01*
X0158748Y0095307D01*
X0158630Y0095348D01*
X0158515Y0095394D01*
X0158400Y0095443D01*
X0158288Y0095496D01*
X0158177Y0095552D01*
X0158068Y0095612D01*
X0157961Y0095676D01*
X0157856Y0095742D01*
X0157753Y0095812D01*
X0157653Y0095886D01*
X0157555Y0095962D01*
X0157459Y0096041D01*
X0157366Y0096124D01*
X0157275Y0096209D01*
X0157188Y0096298D01*
X0157103Y0096389D01*
X0157021Y0096483D01*
X0156943Y0096579D01*
X0156867Y0096678D01*
X0156794Y0096779D01*
X0156725Y0096882D01*
X0156659Y0096988D01*
X0156597Y0097095D01*
X0156538Y0097205D01*
X0156482Y0097316D01*
X0156430Y0097429D01*
X0156382Y0097544D01*
X0156338Y0097660D01*
X0156297Y0097777D01*
X0156260Y0097896D01*
X0156226Y0098016D01*
X0156197Y0098136D01*
X0156171Y0098258D01*
X0156149Y0098381D01*
X0156132Y0098504D01*
X0156118Y0098627D01*
X0156108Y0098751D01*
X0156102Y0098876D01*
X0156100Y0099000D01*
X0156000Y0095000D02*
X0164000Y0103000D01*
X0146100Y0100000D02*
X0146102Y0100124D01*
X0146108Y0100249D01*
X0146118Y0100373D01*
X0146132Y0100496D01*
X0146149Y0100619D01*
X0146171Y0100742D01*
X0146197Y0100864D01*
X0146226Y0100984D01*
X0146260Y0101104D01*
X0146297Y0101223D01*
X0146338Y0101340D01*
X0146382Y0101456D01*
X0146430Y0101571D01*
X0146482Y0101684D01*
X0146538Y0101795D01*
X0146597Y0101905D01*
X0146659Y0102012D01*
X0146725Y0102118D01*
X0146794Y0102221D01*
X0146867Y0102322D01*
X0146943Y0102421D01*
X0147021Y0102517D01*
X0147103Y0102611D01*
X0147188Y0102702D01*
X0147275Y0102791D01*
X0147366Y0102876D01*
X0147459Y0102959D01*
X0147555Y0103038D01*
X0147653Y0103114D01*
X0147753Y0103188D01*
X0147856Y0103258D01*
X0147961Y0103324D01*
X0148068Y0103388D01*
X0148177Y0103448D01*
X0148288Y0103504D01*
X0148400Y0103557D01*
X0148515Y0103606D01*
X0148630Y0103652D01*
X0148748Y0103693D01*
X0148866Y0103732D01*
X0148986Y0103766D01*
X0149106Y0103796D01*
X0149228Y0103823D01*
X0149350Y0103845D01*
X0149473Y0103864D01*
X0149596Y0103879D01*
X0149720Y0103890D01*
X0149845Y0103897D01*
X0149969Y0103900D01*
X0150093Y0103899D01*
X0150218Y0103894D01*
X0150342Y0103885D01*
X0150465Y0103872D01*
X0150589Y0103855D01*
X0150711Y0103835D01*
X0150833Y0103810D01*
X0150954Y0103781D01*
X0151074Y0103749D01*
X0151193Y0103713D01*
X0151311Y0103673D01*
X0151428Y0103629D01*
X0151543Y0103582D01*
X0151656Y0103531D01*
X0151768Y0103476D01*
X0151878Y0103418D01*
X0151986Y0103357D01*
X0152092Y0103292D01*
X0152196Y0103223D01*
X0152297Y0103152D01*
X0152397Y0103077D01*
X0152494Y0102999D01*
X0152588Y0102918D01*
X0152680Y0102834D01*
X0152769Y0102747D01*
X0152855Y0102657D01*
X0152938Y0102565D01*
X0153018Y0102470D01*
X0153096Y0102372D01*
X0153170Y0102272D01*
X0153241Y0102170D01*
X0153308Y0102066D01*
X0153372Y0101959D01*
X0153433Y0101850D01*
X0153490Y0101740D01*
X0153544Y0101628D01*
X0153594Y0101514D01*
X0153641Y0101399D01*
X0153683Y0101282D01*
X0153722Y0101164D01*
X0153758Y0101044D01*
X0153789Y0100924D01*
X0153816Y0100803D01*
X0153840Y0100681D01*
X0153860Y0100558D01*
X0153876Y0100434D01*
X0153888Y0100311D01*
X0153896Y0100187D01*
X0153900Y0100062D01*
X0153900Y0099938D01*
X0153896Y0099813D01*
X0153888Y0099689D01*
X0153876Y0099566D01*
X0153860Y0099442D01*
X0153840Y0099319D01*
X0153816Y0099197D01*
X0153789Y0099076D01*
X0153758Y0098956D01*
X0153722Y0098836D01*
X0153683Y0098718D01*
X0153641Y0098601D01*
X0153594Y0098486D01*
X0153544Y0098372D01*
X0153490Y0098260D01*
X0153433Y0098150D01*
X0153372Y0098041D01*
X0153308Y0097934D01*
X0153241Y0097830D01*
X0153170Y0097728D01*
X0153096Y0097628D01*
X0153018Y0097530D01*
X0152938Y0097435D01*
X0152855Y0097343D01*
X0152769Y0097253D01*
X0152680Y0097166D01*
X0152588Y0097082D01*
X0152494Y0097001D01*
X0152397Y0096923D01*
X0152297Y0096848D01*
X0152196Y0096777D01*
X0152092Y0096708D01*
X0151986Y0096643D01*
X0151878Y0096582D01*
X0151768Y0096524D01*
X0151656Y0096469D01*
X0151543Y0096418D01*
X0151428Y0096371D01*
X0151311Y0096327D01*
X0151193Y0096287D01*
X0151074Y0096251D01*
X0150954Y0096219D01*
X0150833Y0096190D01*
X0150711Y0096165D01*
X0150589Y0096145D01*
X0150465Y0096128D01*
X0150342Y0096115D01*
X0150218Y0096106D01*
X0150093Y0096101D01*
X0149969Y0096100D01*
X0149845Y0096103D01*
X0149720Y0096110D01*
X0149596Y0096121D01*
X0149473Y0096136D01*
X0149350Y0096155D01*
X0149228Y0096177D01*
X0149106Y0096204D01*
X0148986Y0096234D01*
X0148866Y0096268D01*
X0148748Y0096307D01*
X0148630Y0096348D01*
X0148515Y0096394D01*
X0148400Y0096443D01*
X0148288Y0096496D01*
X0148177Y0096552D01*
X0148068Y0096612D01*
X0147961Y0096676D01*
X0147856Y0096742D01*
X0147753Y0096812D01*
X0147653Y0096886D01*
X0147555Y0096962D01*
X0147459Y0097041D01*
X0147366Y0097124D01*
X0147275Y0097209D01*
X0147188Y0097298D01*
X0147103Y0097389D01*
X0147021Y0097483D01*
X0146943Y0097579D01*
X0146867Y0097678D01*
X0146794Y0097779D01*
X0146725Y0097882D01*
X0146659Y0097988D01*
X0146597Y0098095D01*
X0146538Y0098205D01*
X0146482Y0098316D01*
X0146430Y0098429D01*
X0146382Y0098544D01*
X0146338Y0098660D01*
X0146297Y0098777D01*
X0146260Y0098896D01*
X0146226Y0099016D01*
X0146197Y0099136D01*
X0146171Y0099258D01*
X0146149Y0099381D01*
X0146132Y0099504D01*
X0146118Y0099627D01*
X0146108Y0099751D01*
X0146102Y0099876D01*
X0146100Y0100000D01*
X0146000Y0096000D02*
X0154000Y0104000D01*
X0136100Y0099000D02*
X0136102Y0099124D01*
X0136108Y0099249D01*
X0136118Y0099373D01*
X0136132Y0099496D01*
X0136149Y0099619D01*
X0136171Y0099742D01*
X0136197Y0099864D01*
X0136226Y0099984D01*
X0136260Y0100104D01*
X0136297Y0100223D01*
X0136338Y0100340D01*
X0136382Y0100456D01*
X0136430Y0100571D01*
X0136482Y0100684D01*
X0136538Y0100795D01*
X0136597Y0100905D01*
X0136659Y0101012D01*
X0136725Y0101118D01*
X0136794Y0101221D01*
X0136867Y0101322D01*
X0136943Y0101421D01*
X0137021Y0101517D01*
X0137103Y0101611D01*
X0137188Y0101702D01*
X0137275Y0101791D01*
X0137366Y0101876D01*
X0137459Y0101959D01*
X0137555Y0102038D01*
X0137653Y0102114D01*
X0137753Y0102188D01*
X0137856Y0102258D01*
X0137961Y0102324D01*
X0138068Y0102388D01*
X0138177Y0102448D01*
X0138288Y0102504D01*
X0138400Y0102557D01*
X0138515Y0102606D01*
X0138630Y0102652D01*
X0138748Y0102693D01*
X0138866Y0102732D01*
X0138986Y0102766D01*
X0139106Y0102796D01*
X0139228Y0102823D01*
X0139350Y0102845D01*
X0139473Y0102864D01*
X0139596Y0102879D01*
X0139720Y0102890D01*
X0139845Y0102897D01*
X0139969Y0102900D01*
X0140093Y0102899D01*
X0140218Y0102894D01*
X0140342Y0102885D01*
X0140465Y0102872D01*
X0140589Y0102855D01*
X0140711Y0102835D01*
X0140833Y0102810D01*
X0140954Y0102781D01*
X0141074Y0102749D01*
X0141193Y0102713D01*
X0141311Y0102673D01*
X0141428Y0102629D01*
X0141543Y0102582D01*
X0141656Y0102531D01*
X0141768Y0102476D01*
X0141878Y0102418D01*
X0141986Y0102357D01*
X0142092Y0102292D01*
X0142196Y0102223D01*
X0142297Y0102152D01*
X0142397Y0102077D01*
X0142494Y0101999D01*
X0142588Y0101918D01*
X0142680Y0101834D01*
X0142769Y0101747D01*
X0142855Y0101657D01*
X0142938Y0101565D01*
X0143018Y0101470D01*
X0143096Y0101372D01*
X0143170Y0101272D01*
X0143241Y0101170D01*
X0143308Y0101066D01*
X0143372Y0100959D01*
X0143433Y0100850D01*
X0143490Y0100740D01*
X0143544Y0100628D01*
X0143594Y0100514D01*
X0143641Y0100399D01*
X0143683Y0100282D01*
X0143722Y0100164D01*
X0143758Y0100044D01*
X0143789Y0099924D01*
X0143816Y0099803D01*
X0143840Y0099681D01*
X0143860Y0099558D01*
X0143876Y0099434D01*
X0143888Y0099311D01*
X0143896Y0099187D01*
X0143900Y0099062D01*
X0143900Y0098938D01*
X0143896Y0098813D01*
X0143888Y0098689D01*
X0143876Y0098566D01*
X0143860Y0098442D01*
X0143840Y0098319D01*
X0143816Y0098197D01*
X0143789Y0098076D01*
X0143758Y0097956D01*
X0143722Y0097836D01*
X0143683Y0097718D01*
X0143641Y0097601D01*
X0143594Y0097486D01*
X0143544Y0097372D01*
X0143490Y0097260D01*
X0143433Y0097150D01*
X0143372Y0097041D01*
X0143308Y0096934D01*
X0143241Y0096830D01*
X0143170Y0096728D01*
X0143096Y0096628D01*
X0143018Y0096530D01*
X0142938Y0096435D01*
X0142855Y0096343D01*
X0142769Y0096253D01*
X0142680Y0096166D01*
X0142588Y0096082D01*
X0142494Y0096001D01*
X0142397Y0095923D01*
X0142297Y0095848D01*
X0142196Y0095777D01*
X0142092Y0095708D01*
X0141986Y0095643D01*
X0141878Y0095582D01*
X0141768Y0095524D01*
X0141656Y0095469D01*
X0141543Y0095418D01*
X0141428Y0095371D01*
X0141311Y0095327D01*
X0141193Y0095287D01*
X0141074Y0095251D01*
X0140954Y0095219D01*
X0140833Y0095190D01*
X0140711Y0095165D01*
X0140589Y0095145D01*
X0140465Y0095128D01*
X0140342Y0095115D01*
X0140218Y0095106D01*
X0140093Y0095101D01*
X0139969Y0095100D01*
X0139845Y0095103D01*
X0139720Y0095110D01*
X0139596Y0095121D01*
X0139473Y0095136D01*
X0139350Y0095155D01*
X0139228Y0095177D01*
X0139106Y0095204D01*
X0138986Y0095234D01*
X0138866Y0095268D01*
X0138748Y0095307D01*
X0138630Y0095348D01*
X0138515Y0095394D01*
X0138400Y0095443D01*
X0138288Y0095496D01*
X0138177Y0095552D01*
X0138068Y0095612D01*
X0137961Y0095676D01*
X0137856Y0095742D01*
X0137753Y0095812D01*
X0137653Y0095886D01*
X0137555Y0095962D01*
X0137459Y0096041D01*
X0137366Y0096124D01*
X0137275Y0096209D01*
X0137188Y0096298D01*
X0137103Y0096389D01*
X0137021Y0096483D01*
X0136943Y0096579D01*
X0136867Y0096678D01*
X0136794Y0096779D01*
X0136725Y0096882D01*
X0136659Y0096988D01*
X0136597Y0097095D01*
X0136538Y0097205D01*
X0136482Y0097316D01*
X0136430Y0097429D01*
X0136382Y0097544D01*
X0136338Y0097660D01*
X0136297Y0097777D01*
X0136260Y0097896D01*
X0136226Y0098016D01*
X0136197Y0098136D01*
X0136171Y0098258D01*
X0136149Y0098381D01*
X0136132Y0098504D01*
X0136118Y0098627D01*
X0136108Y0098751D01*
X0136102Y0098876D01*
X0136100Y0099000D01*
X0136000Y0095000D02*
X0144000Y0103000D01*
X0126100Y0100000D02*
X0126102Y0100124D01*
X0126108Y0100249D01*
X0126118Y0100373D01*
X0126132Y0100496D01*
X0126149Y0100619D01*
X0126171Y0100742D01*
X0126197Y0100864D01*
X0126226Y0100984D01*
X0126260Y0101104D01*
X0126297Y0101223D01*
X0126338Y0101340D01*
X0126382Y0101456D01*
X0126430Y0101571D01*
X0126482Y0101684D01*
X0126538Y0101795D01*
X0126597Y0101905D01*
X0126659Y0102012D01*
X0126725Y0102118D01*
X0126794Y0102221D01*
X0126867Y0102322D01*
X0126943Y0102421D01*
X0127021Y0102517D01*
X0127103Y0102611D01*
X0127188Y0102702D01*
X0127275Y0102791D01*
X0127366Y0102876D01*
X0127459Y0102959D01*
X0127555Y0103038D01*
X0127653Y0103114D01*
X0127753Y0103188D01*
X0127856Y0103258D01*
X0127961Y0103324D01*
X0128068Y0103388D01*
X0128177Y0103448D01*
X0128288Y0103504D01*
X0128400Y0103557D01*
X0128515Y0103606D01*
X0128630Y0103652D01*
X0128748Y0103693D01*
X0128866Y0103732D01*
X0128986Y0103766D01*
X0129106Y0103796D01*
X0129228Y0103823D01*
X0129350Y0103845D01*
X0129473Y0103864D01*
X0129596Y0103879D01*
X0129720Y0103890D01*
X0129845Y0103897D01*
X0129969Y0103900D01*
X0130093Y0103899D01*
X0130218Y0103894D01*
X0130342Y0103885D01*
X0130465Y0103872D01*
X0130589Y0103855D01*
X0130711Y0103835D01*
X0130833Y0103810D01*
X0130954Y0103781D01*
X0131074Y0103749D01*
X0131193Y0103713D01*
X0131311Y0103673D01*
X0131428Y0103629D01*
X0131543Y0103582D01*
X0131656Y0103531D01*
X0131768Y0103476D01*
X0131878Y0103418D01*
X0131986Y0103357D01*
X0132092Y0103292D01*
X0132196Y0103223D01*
X0132297Y0103152D01*
X0132397Y0103077D01*
X0132494Y0102999D01*
X0132588Y0102918D01*
X0132680Y0102834D01*
X0132769Y0102747D01*
X0132855Y0102657D01*
X0132938Y0102565D01*
X0133018Y0102470D01*
X0133096Y0102372D01*
X0133170Y0102272D01*
X0133241Y0102170D01*
X0133308Y0102066D01*
X0133372Y0101959D01*
X0133433Y0101850D01*
X0133490Y0101740D01*
X0133544Y0101628D01*
X0133594Y0101514D01*
X0133641Y0101399D01*
X0133683Y0101282D01*
X0133722Y0101164D01*
X0133758Y0101044D01*
X0133789Y0100924D01*
X0133816Y0100803D01*
X0133840Y0100681D01*
X0133860Y0100558D01*
X0133876Y0100434D01*
X0133888Y0100311D01*
X0133896Y0100187D01*
X0133900Y0100062D01*
X0133900Y0099938D01*
X0133896Y0099813D01*
X0133888Y0099689D01*
X0133876Y0099566D01*
X0133860Y0099442D01*
X0133840Y0099319D01*
X0133816Y0099197D01*
X0133789Y0099076D01*
X0133758Y0098956D01*
X0133722Y0098836D01*
X0133683Y0098718D01*
X0133641Y0098601D01*
X0133594Y0098486D01*
X0133544Y0098372D01*
X0133490Y0098260D01*
X0133433Y0098150D01*
X0133372Y0098041D01*
X0133308Y0097934D01*
X0133241Y0097830D01*
X0133170Y0097728D01*
X0133096Y0097628D01*
X0133018Y0097530D01*
X0132938Y0097435D01*
X0132855Y0097343D01*
X0132769Y0097253D01*
X0132680Y0097166D01*
X0132588Y0097082D01*
X0132494Y0097001D01*
X0132397Y0096923D01*
X0132297Y0096848D01*
X0132196Y0096777D01*
X0132092Y0096708D01*
X0131986Y0096643D01*
X0131878Y0096582D01*
X0131768Y0096524D01*
X0131656Y0096469D01*
X0131543Y0096418D01*
X0131428Y0096371D01*
X0131311Y0096327D01*
X0131193Y0096287D01*
X0131074Y0096251D01*
X0130954Y0096219D01*
X0130833Y0096190D01*
X0130711Y0096165D01*
X0130589Y0096145D01*
X0130465Y0096128D01*
X0130342Y0096115D01*
X0130218Y0096106D01*
X0130093Y0096101D01*
X0129969Y0096100D01*
X0129845Y0096103D01*
X0129720Y0096110D01*
X0129596Y0096121D01*
X0129473Y0096136D01*
X0129350Y0096155D01*
X0129228Y0096177D01*
X0129106Y0096204D01*
X0128986Y0096234D01*
X0128866Y0096268D01*
X0128748Y0096307D01*
X0128630Y0096348D01*
X0128515Y0096394D01*
X0128400Y0096443D01*
X0128288Y0096496D01*
X0128177Y0096552D01*
X0128068Y0096612D01*
X0127961Y0096676D01*
X0127856Y0096742D01*
X0127753Y0096812D01*
X0127653Y0096886D01*
X0127555Y0096962D01*
X0127459Y0097041D01*
X0127366Y0097124D01*
X0127275Y0097209D01*
X0127188Y0097298D01*
X0127103Y0097389D01*
X0127021Y0097483D01*
X0126943Y0097579D01*
X0126867Y0097678D01*
X0126794Y0097779D01*
X0126725Y0097882D01*
X0126659Y0097988D01*
X0126597Y0098095D01*
X0126538Y0098205D01*
X0126482Y0098316D01*
X0126430Y0098429D01*
X0126382Y0098544D01*
X0126338Y0098660D01*
X0126297Y0098777D01*
X0126260Y0098896D01*
X0126226Y0099016D01*
X0126197Y0099136D01*
X0126171Y0099258D01*
X0126149Y0099381D01*
X0126132Y0099504D01*
X0126118Y0099627D01*
X0126108Y0099751D01*
X0126102Y0099876D01*
X0126100Y0100000D01*
X0126000Y0096000D02*
X0134000Y0104000D01*
X0126100Y0125000D02*
X0126102Y0125124D01*
X0126108Y0125249D01*
X0126118Y0125373D01*
X0126132Y0125496D01*
X0126149Y0125619D01*
X0126171Y0125742D01*
X0126197Y0125864D01*
X0126226Y0125984D01*
X0126260Y0126104D01*
X0126297Y0126223D01*
X0126338Y0126340D01*
X0126382Y0126456D01*
X0126430Y0126571D01*
X0126482Y0126684D01*
X0126538Y0126795D01*
X0126597Y0126905D01*
X0126659Y0127012D01*
X0126725Y0127118D01*
X0126794Y0127221D01*
X0126867Y0127322D01*
X0126943Y0127421D01*
X0127021Y0127517D01*
X0127103Y0127611D01*
X0127188Y0127702D01*
X0127275Y0127791D01*
X0127366Y0127876D01*
X0127459Y0127959D01*
X0127555Y0128038D01*
X0127653Y0128114D01*
X0127753Y0128188D01*
X0127856Y0128258D01*
X0127961Y0128324D01*
X0128068Y0128388D01*
X0128177Y0128448D01*
X0128288Y0128504D01*
X0128400Y0128557D01*
X0128515Y0128606D01*
X0128630Y0128652D01*
X0128748Y0128693D01*
X0128866Y0128732D01*
X0128986Y0128766D01*
X0129106Y0128796D01*
X0129228Y0128823D01*
X0129350Y0128845D01*
X0129473Y0128864D01*
X0129596Y0128879D01*
X0129720Y0128890D01*
X0129845Y0128897D01*
X0129969Y0128900D01*
X0130093Y0128899D01*
X0130218Y0128894D01*
X0130342Y0128885D01*
X0130465Y0128872D01*
X0130589Y0128855D01*
X0130711Y0128835D01*
X0130833Y0128810D01*
X0130954Y0128781D01*
X0131074Y0128749D01*
X0131193Y0128713D01*
X0131311Y0128673D01*
X0131428Y0128629D01*
X0131543Y0128582D01*
X0131656Y0128531D01*
X0131768Y0128476D01*
X0131878Y0128418D01*
X0131986Y0128357D01*
X0132092Y0128292D01*
X0132196Y0128223D01*
X0132297Y0128152D01*
X0132397Y0128077D01*
X0132494Y0127999D01*
X0132588Y0127918D01*
X0132680Y0127834D01*
X0132769Y0127747D01*
X0132855Y0127657D01*
X0132938Y0127565D01*
X0133018Y0127470D01*
X0133096Y0127372D01*
X0133170Y0127272D01*
X0133241Y0127170D01*
X0133308Y0127066D01*
X0133372Y0126959D01*
X0133433Y0126850D01*
X0133490Y0126740D01*
X0133544Y0126628D01*
X0133594Y0126514D01*
X0133641Y0126399D01*
X0133683Y0126282D01*
X0133722Y0126164D01*
X0133758Y0126044D01*
X0133789Y0125924D01*
X0133816Y0125803D01*
X0133840Y0125681D01*
X0133860Y0125558D01*
X0133876Y0125434D01*
X0133888Y0125311D01*
X0133896Y0125187D01*
X0133900Y0125062D01*
X0133900Y0124938D01*
X0133896Y0124813D01*
X0133888Y0124689D01*
X0133876Y0124566D01*
X0133860Y0124442D01*
X0133840Y0124319D01*
X0133816Y0124197D01*
X0133789Y0124076D01*
X0133758Y0123956D01*
X0133722Y0123836D01*
X0133683Y0123718D01*
X0133641Y0123601D01*
X0133594Y0123486D01*
X0133544Y0123372D01*
X0133490Y0123260D01*
X0133433Y0123150D01*
X0133372Y0123041D01*
X0133308Y0122934D01*
X0133241Y0122830D01*
X0133170Y0122728D01*
X0133096Y0122628D01*
X0133018Y0122530D01*
X0132938Y0122435D01*
X0132855Y0122343D01*
X0132769Y0122253D01*
X0132680Y0122166D01*
X0132588Y0122082D01*
X0132494Y0122001D01*
X0132397Y0121923D01*
X0132297Y0121848D01*
X0132196Y0121777D01*
X0132092Y0121708D01*
X0131986Y0121643D01*
X0131878Y0121582D01*
X0131768Y0121524D01*
X0131656Y0121469D01*
X0131543Y0121418D01*
X0131428Y0121371D01*
X0131311Y0121327D01*
X0131193Y0121287D01*
X0131074Y0121251D01*
X0130954Y0121219D01*
X0130833Y0121190D01*
X0130711Y0121165D01*
X0130589Y0121145D01*
X0130465Y0121128D01*
X0130342Y0121115D01*
X0130218Y0121106D01*
X0130093Y0121101D01*
X0129969Y0121100D01*
X0129845Y0121103D01*
X0129720Y0121110D01*
X0129596Y0121121D01*
X0129473Y0121136D01*
X0129350Y0121155D01*
X0129228Y0121177D01*
X0129106Y0121204D01*
X0128986Y0121234D01*
X0128866Y0121268D01*
X0128748Y0121307D01*
X0128630Y0121348D01*
X0128515Y0121394D01*
X0128400Y0121443D01*
X0128288Y0121496D01*
X0128177Y0121552D01*
X0128068Y0121612D01*
X0127961Y0121676D01*
X0127856Y0121742D01*
X0127753Y0121812D01*
X0127653Y0121886D01*
X0127555Y0121962D01*
X0127459Y0122041D01*
X0127366Y0122124D01*
X0127275Y0122209D01*
X0127188Y0122298D01*
X0127103Y0122389D01*
X0127021Y0122483D01*
X0126943Y0122579D01*
X0126867Y0122678D01*
X0126794Y0122779D01*
X0126725Y0122882D01*
X0126659Y0122988D01*
X0126597Y0123095D01*
X0126538Y0123205D01*
X0126482Y0123316D01*
X0126430Y0123429D01*
X0126382Y0123544D01*
X0126338Y0123660D01*
X0126297Y0123777D01*
X0126260Y0123896D01*
X0126226Y0124016D01*
X0126197Y0124136D01*
X0126171Y0124258D01*
X0126149Y0124381D01*
X0126132Y0124504D01*
X0126118Y0124627D01*
X0126108Y0124751D01*
X0126102Y0124876D01*
X0126100Y0125000D01*
X0126000Y0121000D02*
X0134000Y0129000D01*
X0136100Y0125000D02*
X0136102Y0125124D01*
X0136108Y0125249D01*
X0136118Y0125373D01*
X0136132Y0125496D01*
X0136149Y0125619D01*
X0136171Y0125742D01*
X0136197Y0125864D01*
X0136226Y0125984D01*
X0136260Y0126104D01*
X0136297Y0126223D01*
X0136338Y0126340D01*
X0136382Y0126456D01*
X0136430Y0126571D01*
X0136482Y0126684D01*
X0136538Y0126795D01*
X0136597Y0126905D01*
X0136659Y0127012D01*
X0136725Y0127118D01*
X0136794Y0127221D01*
X0136867Y0127322D01*
X0136943Y0127421D01*
X0137021Y0127517D01*
X0137103Y0127611D01*
X0137188Y0127702D01*
X0137275Y0127791D01*
X0137366Y0127876D01*
X0137459Y0127959D01*
X0137555Y0128038D01*
X0137653Y0128114D01*
X0137753Y0128188D01*
X0137856Y0128258D01*
X0137961Y0128324D01*
X0138068Y0128388D01*
X0138177Y0128448D01*
X0138288Y0128504D01*
X0138400Y0128557D01*
X0138515Y0128606D01*
X0138630Y0128652D01*
X0138748Y0128693D01*
X0138866Y0128732D01*
X0138986Y0128766D01*
X0139106Y0128796D01*
X0139228Y0128823D01*
X0139350Y0128845D01*
X0139473Y0128864D01*
X0139596Y0128879D01*
X0139720Y0128890D01*
X0139845Y0128897D01*
X0139969Y0128900D01*
X0140093Y0128899D01*
X0140218Y0128894D01*
X0140342Y0128885D01*
X0140465Y0128872D01*
X0140589Y0128855D01*
X0140711Y0128835D01*
X0140833Y0128810D01*
X0140954Y0128781D01*
X0141074Y0128749D01*
X0141193Y0128713D01*
X0141311Y0128673D01*
X0141428Y0128629D01*
X0141543Y0128582D01*
X0141656Y0128531D01*
X0141768Y0128476D01*
X0141878Y0128418D01*
X0141986Y0128357D01*
X0142092Y0128292D01*
X0142196Y0128223D01*
X0142297Y0128152D01*
X0142397Y0128077D01*
X0142494Y0127999D01*
X0142588Y0127918D01*
X0142680Y0127834D01*
X0142769Y0127747D01*
X0142855Y0127657D01*
X0142938Y0127565D01*
X0143018Y0127470D01*
X0143096Y0127372D01*
X0143170Y0127272D01*
X0143241Y0127170D01*
X0143308Y0127066D01*
X0143372Y0126959D01*
X0143433Y0126850D01*
X0143490Y0126740D01*
X0143544Y0126628D01*
X0143594Y0126514D01*
X0143641Y0126399D01*
X0143683Y0126282D01*
X0143722Y0126164D01*
X0143758Y0126044D01*
X0143789Y0125924D01*
X0143816Y0125803D01*
X0143840Y0125681D01*
X0143860Y0125558D01*
X0143876Y0125434D01*
X0143888Y0125311D01*
X0143896Y0125187D01*
X0143900Y0125062D01*
X0143900Y0124938D01*
X0143896Y0124813D01*
X0143888Y0124689D01*
X0143876Y0124566D01*
X0143860Y0124442D01*
X0143840Y0124319D01*
X0143816Y0124197D01*
X0143789Y0124076D01*
X0143758Y0123956D01*
X0143722Y0123836D01*
X0143683Y0123718D01*
X0143641Y0123601D01*
X0143594Y0123486D01*
X0143544Y0123372D01*
X0143490Y0123260D01*
X0143433Y0123150D01*
X0143372Y0123041D01*
X0143308Y0122934D01*
X0143241Y0122830D01*
X0143170Y0122728D01*
X0143096Y0122628D01*
X0143018Y0122530D01*
X0142938Y0122435D01*
X0142855Y0122343D01*
X0142769Y0122253D01*
X0142680Y0122166D01*
X0142588Y0122082D01*
X0142494Y0122001D01*
X0142397Y0121923D01*
X0142297Y0121848D01*
X0142196Y0121777D01*
X0142092Y0121708D01*
X0141986Y0121643D01*
X0141878Y0121582D01*
X0141768Y0121524D01*
X0141656Y0121469D01*
X0141543Y0121418D01*
X0141428Y0121371D01*
X0141311Y0121327D01*
X0141193Y0121287D01*
X0141074Y0121251D01*
X0140954Y0121219D01*
X0140833Y0121190D01*
X0140711Y0121165D01*
X0140589Y0121145D01*
X0140465Y0121128D01*
X0140342Y0121115D01*
X0140218Y0121106D01*
X0140093Y0121101D01*
X0139969Y0121100D01*
X0139845Y0121103D01*
X0139720Y0121110D01*
X0139596Y0121121D01*
X0139473Y0121136D01*
X0139350Y0121155D01*
X0139228Y0121177D01*
X0139106Y0121204D01*
X0138986Y0121234D01*
X0138866Y0121268D01*
X0138748Y0121307D01*
X0138630Y0121348D01*
X0138515Y0121394D01*
X0138400Y0121443D01*
X0138288Y0121496D01*
X0138177Y0121552D01*
X0138068Y0121612D01*
X0137961Y0121676D01*
X0137856Y0121742D01*
X0137753Y0121812D01*
X0137653Y0121886D01*
X0137555Y0121962D01*
X0137459Y0122041D01*
X0137366Y0122124D01*
X0137275Y0122209D01*
X0137188Y0122298D01*
X0137103Y0122389D01*
X0137021Y0122483D01*
X0136943Y0122579D01*
X0136867Y0122678D01*
X0136794Y0122779D01*
X0136725Y0122882D01*
X0136659Y0122988D01*
X0136597Y0123095D01*
X0136538Y0123205D01*
X0136482Y0123316D01*
X0136430Y0123429D01*
X0136382Y0123544D01*
X0136338Y0123660D01*
X0136297Y0123777D01*
X0136260Y0123896D01*
X0136226Y0124016D01*
X0136197Y0124136D01*
X0136171Y0124258D01*
X0136149Y0124381D01*
X0136132Y0124504D01*
X0136118Y0124627D01*
X0136108Y0124751D01*
X0136102Y0124876D01*
X0136100Y0125000D01*
X0136000Y0121000D02*
X0144000Y0129000D01*
X0146100Y0125000D02*
X0146102Y0125124D01*
X0146108Y0125249D01*
X0146118Y0125373D01*
X0146132Y0125496D01*
X0146149Y0125619D01*
X0146171Y0125742D01*
X0146197Y0125864D01*
X0146226Y0125984D01*
X0146260Y0126104D01*
X0146297Y0126223D01*
X0146338Y0126340D01*
X0146382Y0126456D01*
X0146430Y0126571D01*
X0146482Y0126684D01*
X0146538Y0126795D01*
X0146597Y0126905D01*
X0146659Y0127012D01*
X0146725Y0127118D01*
X0146794Y0127221D01*
X0146867Y0127322D01*
X0146943Y0127421D01*
X0147021Y0127517D01*
X0147103Y0127611D01*
X0147188Y0127702D01*
X0147275Y0127791D01*
X0147366Y0127876D01*
X0147459Y0127959D01*
X0147555Y0128038D01*
X0147653Y0128114D01*
X0147753Y0128188D01*
X0147856Y0128258D01*
X0147961Y0128324D01*
X0148068Y0128388D01*
X0148177Y0128448D01*
X0148288Y0128504D01*
X0148400Y0128557D01*
X0148515Y0128606D01*
X0148630Y0128652D01*
X0148748Y0128693D01*
X0148866Y0128732D01*
X0148986Y0128766D01*
X0149106Y0128796D01*
X0149228Y0128823D01*
X0149350Y0128845D01*
X0149473Y0128864D01*
X0149596Y0128879D01*
X0149720Y0128890D01*
X0149845Y0128897D01*
X0149969Y0128900D01*
X0150093Y0128899D01*
X0150218Y0128894D01*
X0150342Y0128885D01*
X0150465Y0128872D01*
X0150589Y0128855D01*
X0150711Y0128835D01*
X0150833Y0128810D01*
X0150954Y0128781D01*
X0151074Y0128749D01*
X0151193Y0128713D01*
X0151311Y0128673D01*
X0151428Y0128629D01*
X0151543Y0128582D01*
X0151656Y0128531D01*
X0151768Y0128476D01*
X0151878Y0128418D01*
X0151986Y0128357D01*
X0152092Y0128292D01*
X0152196Y0128223D01*
X0152297Y0128152D01*
X0152397Y0128077D01*
X0152494Y0127999D01*
X0152588Y0127918D01*
X0152680Y0127834D01*
X0152769Y0127747D01*
X0152855Y0127657D01*
X0152938Y0127565D01*
X0153018Y0127470D01*
X0153096Y0127372D01*
X0153170Y0127272D01*
X0153241Y0127170D01*
X0153308Y0127066D01*
X0153372Y0126959D01*
X0153433Y0126850D01*
X0153490Y0126740D01*
X0153544Y0126628D01*
X0153594Y0126514D01*
X0153641Y0126399D01*
X0153683Y0126282D01*
X0153722Y0126164D01*
X0153758Y0126044D01*
X0153789Y0125924D01*
X0153816Y0125803D01*
X0153840Y0125681D01*
X0153860Y0125558D01*
X0153876Y0125434D01*
X0153888Y0125311D01*
X0153896Y0125187D01*
X0153900Y0125062D01*
X0153900Y0124938D01*
X0153896Y0124813D01*
X0153888Y0124689D01*
X0153876Y0124566D01*
X0153860Y0124442D01*
X0153840Y0124319D01*
X0153816Y0124197D01*
X0153789Y0124076D01*
X0153758Y0123956D01*
X0153722Y0123836D01*
X0153683Y0123718D01*
X0153641Y0123601D01*
X0153594Y0123486D01*
X0153544Y0123372D01*
X0153490Y0123260D01*
X0153433Y0123150D01*
X0153372Y0123041D01*
X0153308Y0122934D01*
X0153241Y0122830D01*
X0153170Y0122728D01*
X0153096Y0122628D01*
X0153018Y0122530D01*
X0152938Y0122435D01*
X0152855Y0122343D01*
X0152769Y0122253D01*
X0152680Y0122166D01*
X0152588Y0122082D01*
X0152494Y0122001D01*
X0152397Y0121923D01*
X0152297Y0121848D01*
X0152196Y0121777D01*
X0152092Y0121708D01*
X0151986Y0121643D01*
X0151878Y0121582D01*
X0151768Y0121524D01*
X0151656Y0121469D01*
X0151543Y0121418D01*
X0151428Y0121371D01*
X0151311Y0121327D01*
X0151193Y0121287D01*
X0151074Y0121251D01*
X0150954Y0121219D01*
X0150833Y0121190D01*
X0150711Y0121165D01*
X0150589Y0121145D01*
X0150465Y0121128D01*
X0150342Y0121115D01*
X0150218Y0121106D01*
X0150093Y0121101D01*
X0149969Y0121100D01*
X0149845Y0121103D01*
X0149720Y0121110D01*
X0149596Y0121121D01*
X0149473Y0121136D01*
X0149350Y0121155D01*
X0149228Y0121177D01*
X0149106Y0121204D01*
X0148986Y0121234D01*
X0148866Y0121268D01*
X0148748Y0121307D01*
X0148630Y0121348D01*
X0148515Y0121394D01*
X0148400Y0121443D01*
X0148288Y0121496D01*
X0148177Y0121552D01*
X0148068Y0121612D01*
X0147961Y0121676D01*
X0147856Y0121742D01*
X0147753Y0121812D01*
X0147653Y0121886D01*
X0147555Y0121962D01*
X0147459Y0122041D01*
X0147366Y0122124D01*
X0147275Y0122209D01*
X0147188Y0122298D01*
X0147103Y0122389D01*
X0147021Y0122483D01*
X0146943Y0122579D01*
X0146867Y0122678D01*
X0146794Y0122779D01*
X0146725Y0122882D01*
X0146659Y0122988D01*
X0146597Y0123095D01*
X0146538Y0123205D01*
X0146482Y0123316D01*
X0146430Y0123429D01*
X0146382Y0123544D01*
X0146338Y0123660D01*
X0146297Y0123777D01*
X0146260Y0123896D01*
X0146226Y0124016D01*
X0146197Y0124136D01*
X0146171Y0124258D01*
X0146149Y0124381D01*
X0146132Y0124504D01*
X0146118Y0124627D01*
X0146108Y0124751D01*
X0146102Y0124876D01*
X0146100Y0125000D01*
X0146000Y0121000D02*
X0154000Y0129000D01*
X0176100Y0155000D02*
X0176102Y0155124D01*
X0176108Y0155249D01*
X0176118Y0155373D01*
X0176132Y0155496D01*
X0176149Y0155619D01*
X0176171Y0155742D01*
X0176197Y0155864D01*
X0176226Y0155984D01*
X0176260Y0156104D01*
X0176297Y0156223D01*
X0176338Y0156340D01*
X0176382Y0156456D01*
X0176430Y0156571D01*
X0176482Y0156684D01*
X0176538Y0156795D01*
X0176597Y0156905D01*
X0176659Y0157012D01*
X0176725Y0157118D01*
X0176794Y0157221D01*
X0176867Y0157322D01*
X0176943Y0157421D01*
X0177021Y0157517D01*
X0177103Y0157611D01*
X0177188Y0157702D01*
X0177275Y0157791D01*
X0177366Y0157876D01*
X0177459Y0157959D01*
X0177555Y0158038D01*
X0177653Y0158114D01*
X0177753Y0158188D01*
X0177856Y0158258D01*
X0177961Y0158324D01*
X0178068Y0158388D01*
X0178177Y0158448D01*
X0178288Y0158504D01*
X0178400Y0158557D01*
X0178515Y0158606D01*
X0178630Y0158652D01*
X0178748Y0158693D01*
X0178866Y0158732D01*
X0178986Y0158766D01*
X0179106Y0158796D01*
X0179228Y0158823D01*
X0179350Y0158845D01*
X0179473Y0158864D01*
X0179596Y0158879D01*
X0179720Y0158890D01*
X0179845Y0158897D01*
X0179969Y0158900D01*
X0180093Y0158899D01*
X0180218Y0158894D01*
X0180342Y0158885D01*
X0180465Y0158872D01*
X0180589Y0158855D01*
X0180711Y0158835D01*
X0180833Y0158810D01*
X0180954Y0158781D01*
X0181074Y0158749D01*
X0181193Y0158713D01*
X0181311Y0158673D01*
X0181428Y0158629D01*
X0181543Y0158582D01*
X0181656Y0158531D01*
X0181768Y0158476D01*
X0181878Y0158418D01*
X0181986Y0158357D01*
X0182092Y0158292D01*
X0182196Y0158223D01*
X0182297Y0158152D01*
X0182397Y0158077D01*
X0182494Y0157999D01*
X0182588Y0157918D01*
X0182680Y0157834D01*
X0182769Y0157747D01*
X0182855Y0157657D01*
X0182938Y0157565D01*
X0183018Y0157470D01*
X0183096Y0157372D01*
X0183170Y0157272D01*
X0183241Y0157170D01*
X0183308Y0157066D01*
X0183372Y0156959D01*
X0183433Y0156850D01*
X0183490Y0156740D01*
X0183544Y0156628D01*
X0183594Y0156514D01*
X0183641Y0156399D01*
X0183683Y0156282D01*
X0183722Y0156164D01*
X0183758Y0156044D01*
X0183789Y0155924D01*
X0183816Y0155803D01*
X0183840Y0155681D01*
X0183860Y0155558D01*
X0183876Y0155434D01*
X0183888Y0155311D01*
X0183896Y0155187D01*
X0183900Y0155062D01*
X0183900Y0154938D01*
X0183896Y0154813D01*
X0183888Y0154689D01*
X0183876Y0154566D01*
X0183860Y0154442D01*
X0183840Y0154319D01*
X0183816Y0154197D01*
X0183789Y0154076D01*
X0183758Y0153956D01*
X0183722Y0153836D01*
X0183683Y0153718D01*
X0183641Y0153601D01*
X0183594Y0153486D01*
X0183544Y0153372D01*
X0183490Y0153260D01*
X0183433Y0153150D01*
X0183372Y0153041D01*
X0183308Y0152934D01*
X0183241Y0152830D01*
X0183170Y0152728D01*
X0183096Y0152628D01*
X0183018Y0152530D01*
X0182938Y0152435D01*
X0182855Y0152343D01*
X0182769Y0152253D01*
X0182680Y0152166D01*
X0182588Y0152082D01*
X0182494Y0152001D01*
X0182397Y0151923D01*
X0182297Y0151848D01*
X0182196Y0151777D01*
X0182092Y0151708D01*
X0181986Y0151643D01*
X0181878Y0151582D01*
X0181768Y0151524D01*
X0181656Y0151469D01*
X0181543Y0151418D01*
X0181428Y0151371D01*
X0181311Y0151327D01*
X0181193Y0151287D01*
X0181074Y0151251D01*
X0180954Y0151219D01*
X0180833Y0151190D01*
X0180711Y0151165D01*
X0180589Y0151145D01*
X0180465Y0151128D01*
X0180342Y0151115D01*
X0180218Y0151106D01*
X0180093Y0151101D01*
X0179969Y0151100D01*
X0179845Y0151103D01*
X0179720Y0151110D01*
X0179596Y0151121D01*
X0179473Y0151136D01*
X0179350Y0151155D01*
X0179228Y0151177D01*
X0179106Y0151204D01*
X0178986Y0151234D01*
X0178866Y0151268D01*
X0178748Y0151307D01*
X0178630Y0151348D01*
X0178515Y0151394D01*
X0178400Y0151443D01*
X0178288Y0151496D01*
X0178177Y0151552D01*
X0178068Y0151612D01*
X0177961Y0151676D01*
X0177856Y0151742D01*
X0177753Y0151812D01*
X0177653Y0151886D01*
X0177555Y0151962D01*
X0177459Y0152041D01*
X0177366Y0152124D01*
X0177275Y0152209D01*
X0177188Y0152298D01*
X0177103Y0152389D01*
X0177021Y0152483D01*
X0176943Y0152579D01*
X0176867Y0152678D01*
X0176794Y0152779D01*
X0176725Y0152882D01*
X0176659Y0152988D01*
X0176597Y0153095D01*
X0176538Y0153205D01*
X0176482Y0153316D01*
X0176430Y0153429D01*
X0176382Y0153544D01*
X0176338Y0153660D01*
X0176297Y0153777D01*
X0176260Y0153896D01*
X0176226Y0154016D01*
X0176197Y0154136D01*
X0176171Y0154258D01*
X0176149Y0154381D01*
X0176132Y0154504D01*
X0176118Y0154627D01*
X0176108Y0154751D01*
X0176102Y0154876D01*
X0176100Y0155000D01*
X0176000Y0151000D02*
X0184000Y0159000D01*
X0186100Y0155000D02*
X0186102Y0155124D01*
X0186108Y0155249D01*
X0186118Y0155373D01*
X0186132Y0155496D01*
X0186149Y0155619D01*
X0186171Y0155742D01*
X0186197Y0155864D01*
X0186226Y0155984D01*
X0186260Y0156104D01*
X0186297Y0156223D01*
X0186338Y0156340D01*
X0186382Y0156456D01*
X0186430Y0156571D01*
X0186482Y0156684D01*
X0186538Y0156795D01*
X0186597Y0156905D01*
X0186659Y0157012D01*
X0186725Y0157118D01*
X0186794Y0157221D01*
X0186867Y0157322D01*
X0186943Y0157421D01*
X0187021Y0157517D01*
X0187103Y0157611D01*
X0187188Y0157702D01*
X0187275Y0157791D01*
X0187366Y0157876D01*
X0187459Y0157959D01*
X0187555Y0158038D01*
X0187653Y0158114D01*
X0187753Y0158188D01*
X0187856Y0158258D01*
X0187961Y0158324D01*
X0188068Y0158388D01*
X0188177Y0158448D01*
X0188288Y0158504D01*
X0188400Y0158557D01*
X0188515Y0158606D01*
X0188630Y0158652D01*
X0188748Y0158693D01*
X0188866Y0158732D01*
X0188986Y0158766D01*
X0189106Y0158796D01*
X0189228Y0158823D01*
X0189350Y0158845D01*
X0189473Y0158864D01*
X0189596Y0158879D01*
X0189720Y0158890D01*
X0189845Y0158897D01*
X0189969Y0158900D01*
X0190093Y0158899D01*
X0190218Y0158894D01*
X0190342Y0158885D01*
X0190465Y0158872D01*
X0190589Y0158855D01*
X0190711Y0158835D01*
X0190833Y0158810D01*
X0190954Y0158781D01*
X0191074Y0158749D01*
X0191193Y0158713D01*
X0191311Y0158673D01*
X0191428Y0158629D01*
X0191543Y0158582D01*
X0191656Y0158531D01*
X0191768Y0158476D01*
X0191878Y0158418D01*
X0191986Y0158357D01*
X0192092Y0158292D01*
X0192196Y0158223D01*
X0192297Y0158152D01*
X0192397Y0158077D01*
X0192494Y0157999D01*
X0192588Y0157918D01*
X0192680Y0157834D01*
X0192769Y0157747D01*
X0192855Y0157657D01*
X0192938Y0157565D01*
X0193018Y0157470D01*
X0193096Y0157372D01*
X0193170Y0157272D01*
X0193241Y0157170D01*
X0193308Y0157066D01*
X0193372Y0156959D01*
X0193433Y0156850D01*
X0193490Y0156740D01*
X0193544Y0156628D01*
X0193594Y0156514D01*
X0193641Y0156399D01*
X0193683Y0156282D01*
X0193722Y0156164D01*
X0193758Y0156044D01*
X0193789Y0155924D01*
X0193816Y0155803D01*
X0193840Y0155681D01*
X0193860Y0155558D01*
X0193876Y0155434D01*
X0193888Y0155311D01*
X0193896Y0155187D01*
X0193900Y0155062D01*
X0193900Y0154938D01*
X0193896Y0154813D01*
X0193888Y0154689D01*
X0193876Y0154566D01*
X0193860Y0154442D01*
X0193840Y0154319D01*
X0193816Y0154197D01*
X0193789Y0154076D01*
X0193758Y0153956D01*
X0193722Y0153836D01*
X0193683Y0153718D01*
X0193641Y0153601D01*
X0193594Y0153486D01*
X0193544Y0153372D01*
X0193490Y0153260D01*
X0193433Y0153150D01*
X0193372Y0153041D01*
X0193308Y0152934D01*
X0193241Y0152830D01*
X0193170Y0152728D01*
X0193096Y0152628D01*
X0193018Y0152530D01*
X0192938Y0152435D01*
X0192855Y0152343D01*
X0192769Y0152253D01*
X0192680Y0152166D01*
X0192588Y0152082D01*
X0192494Y0152001D01*
X0192397Y0151923D01*
X0192297Y0151848D01*
X0192196Y0151777D01*
X0192092Y0151708D01*
X0191986Y0151643D01*
X0191878Y0151582D01*
X0191768Y0151524D01*
X0191656Y0151469D01*
X0191543Y0151418D01*
X0191428Y0151371D01*
X0191311Y0151327D01*
X0191193Y0151287D01*
X0191074Y0151251D01*
X0190954Y0151219D01*
X0190833Y0151190D01*
X0190711Y0151165D01*
X0190589Y0151145D01*
X0190465Y0151128D01*
X0190342Y0151115D01*
X0190218Y0151106D01*
X0190093Y0151101D01*
X0189969Y0151100D01*
X0189845Y0151103D01*
X0189720Y0151110D01*
X0189596Y0151121D01*
X0189473Y0151136D01*
X0189350Y0151155D01*
X0189228Y0151177D01*
X0189106Y0151204D01*
X0188986Y0151234D01*
X0188866Y0151268D01*
X0188748Y0151307D01*
X0188630Y0151348D01*
X0188515Y0151394D01*
X0188400Y0151443D01*
X0188288Y0151496D01*
X0188177Y0151552D01*
X0188068Y0151612D01*
X0187961Y0151676D01*
X0187856Y0151742D01*
X0187753Y0151812D01*
X0187653Y0151886D01*
X0187555Y0151962D01*
X0187459Y0152041D01*
X0187366Y0152124D01*
X0187275Y0152209D01*
X0187188Y0152298D01*
X0187103Y0152389D01*
X0187021Y0152483D01*
X0186943Y0152579D01*
X0186867Y0152678D01*
X0186794Y0152779D01*
X0186725Y0152882D01*
X0186659Y0152988D01*
X0186597Y0153095D01*
X0186538Y0153205D01*
X0186482Y0153316D01*
X0186430Y0153429D01*
X0186382Y0153544D01*
X0186338Y0153660D01*
X0186297Y0153777D01*
X0186260Y0153896D01*
X0186226Y0154016D01*
X0186197Y0154136D01*
X0186171Y0154258D01*
X0186149Y0154381D01*
X0186132Y0154504D01*
X0186118Y0154627D01*
X0186108Y0154751D01*
X0186102Y0154876D01*
X0186100Y0155000D01*
X0186000Y0151000D02*
X0194000Y0159000D01*
X0196100Y0155000D02*
X0196102Y0155124D01*
X0196108Y0155249D01*
X0196118Y0155373D01*
X0196132Y0155496D01*
X0196149Y0155619D01*
X0196171Y0155742D01*
X0196197Y0155864D01*
X0196226Y0155984D01*
X0196260Y0156104D01*
X0196297Y0156223D01*
X0196338Y0156340D01*
X0196382Y0156456D01*
X0196430Y0156571D01*
X0196482Y0156684D01*
X0196538Y0156795D01*
X0196597Y0156905D01*
X0196659Y0157012D01*
X0196725Y0157118D01*
X0196794Y0157221D01*
X0196867Y0157322D01*
X0196943Y0157421D01*
X0197021Y0157517D01*
X0197103Y0157611D01*
X0197188Y0157702D01*
X0197275Y0157791D01*
X0197366Y0157876D01*
X0197459Y0157959D01*
X0197555Y0158038D01*
X0197653Y0158114D01*
X0197753Y0158188D01*
X0197856Y0158258D01*
X0197961Y0158324D01*
X0198068Y0158388D01*
X0198177Y0158448D01*
X0198288Y0158504D01*
X0198400Y0158557D01*
X0198515Y0158606D01*
X0198630Y0158652D01*
X0198748Y0158693D01*
X0198866Y0158732D01*
X0198986Y0158766D01*
X0199106Y0158796D01*
X0199228Y0158823D01*
X0199350Y0158845D01*
X0199473Y0158864D01*
X0199596Y0158879D01*
X0199720Y0158890D01*
X0199845Y0158897D01*
X0199969Y0158900D01*
X0200093Y0158899D01*
X0200218Y0158894D01*
X0200342Y0158885D01*
X0200465Y0158872D01*
X0200589Y0158855D01*
X0200711Y0158835D01*
X0200833Y0158810D01*
X0200954Y0158781D01*
X0201074Y0158749D01*
X0201193Y0158713D01*
X0201311Y0158673D01*
X0201428Y0158629D01*
X0201543Y0158582D01*
X0201656Y0158531D01*
X0201768Y0158476D01*
X0201878Y0158418D01*
X0201986Y0158357D01*
X0202092Y0158292D01*
X0202196Y0158223D01*
X0202297Y0158152D01*
X0202397Y0158077D01*
X0202494Y0157999D01*
X0202588Y0157918D01*
X0202680Y0157834D01*
X0202769Y0157747D01*
X0202855Y0157657D01*
X0202938Y0157565D01*
X0203018Y0157470D01*
X0203096Y0157372D01*
X0203170Y0157272D01*
X0203241Y0157170D01*
X0203308Y0157066D01*
X0203372Y0156959D01*
X0203433Y0156850D01*
X0203490Y0156740D01*
X0203544Y0156628D01*
X0203594Y0156514D01*
X0203641Y0156399D01*
X0203683Y0156282D01*
X0203722Y0156164D01*
X0203758Y0156044D01*
X0203789Y0155924D01*
X0203816Y0155803D01*
X0203840Y0155681D01*
X0203860Y0155558D01*
X0203876Y0155434D01*
X0203888Y0155311D01*
X0203896Y0155187D01*
X0203900Y0155062D01*
X0203900Y0154938D01*
X0203896Y0154813D01*
X0203888Y0154689D01*
X0203876Y0154566D01*
X0203860Y0154442D01*
X0203840Y0154319D01*
X0203816Y0154197D01*
X0203789Y0154076D01*
X0203758Y0153956D01*
X0203722Y0153836D01*
X0203683Y0153718D01*
X0203641Y0153601D01*
X0203594Y0153486D01*
X0203544Y0153372D01*
X0203490Y0153260D01*
X0203433Y0153150D01*
X0203372Y0153041D01*
X0203308Y0152934D01*
X0203241Y0152830D01*
X0203170Y0152728D01*
X0203096Y0152628D01*
X0203018Y0152530D01*
X0202938Y0152435D01*
X0202855Y0152343D01*
X0202769Y0152253D01*
X0202680Y0152166D01*
X0202588Y0152082D01*
X0202494Y0152001D01*
X0202397Y0151923D01*
X0202297Y0151848D01*
X0202196Y0151777D01*
X0202092Y0151708D01*
X0201986Y0151643D01*
X0201878Y0151582D01*
X0201768Y0151524D01*
X0201656Y0151469D01*
X0201543Y0151418D01*
X0201428Y0151371D01*
X0201311Y0151327D01*
X0201193Y0151287D01*
X0201074Y0151251D01*
X0200954Y0151219D01*
X0200833Y0151190D01*
X0200711Y0151165D01*
X0200589Y0151145D01*
X0200465Y0151128D01*
X0200342Y0151115D01*
X0200218Y0151106D01*
X0200093Y0151101D01*
X0199969Y0151100D01*
X0199845Y0151103D01*
X0199720Y0151110D01*
X0199596Y0151121D01*
X0199473Y0151136D01*
X0199350Y0151155D01*
X0199228Y0151177D01*
X0199106Y0151204D01*
X0198986Y0151234D01*
X0198866Y0151268D01*
X0198748Y0151307D01*
X0198630Y0151348D01*
X0198515Y0151394D01*
X0198400Y0151443D01*
X0198288Y0151496D01*
X0198177Y0151552D01*
X0198068Y0151612D01*
X0197961Y0151676D01*
X0197856Y0151742D01*
X0197753Y0151812D01*
X0197653Y0151886D01*
X0197555Y0151962D01*
X0197459Y0152041D01*
X0197366Y0152124D01*
X0197275Y0152209D01*
X0197188Y0152298D01*
X0197103Y0152389D01*
X0197021Y0152483D01*
X0196943Y0152579D01*
X0196867Y0152678D01*
X0196794Y0152779D01*
X0196725Y0152882D01*
X0196659Y0152988D01*
X0196597Y0153095D01*
X0196538Y0153205D01*
X0196482Y0153316D01*
X0196430Y0153429D01*
X0196382Y0153544D01*
X0196338Y0153660D01*
X0196297Y0153777D01*
X0196260Y0153896D01*
X0196226Y0154016D01*
X0196197Y0154136D01*
X0196171Y0154258D01*
X0196149Y0154381D01*
X0196132Y0154504D01*
X0196118Y0154627D01*
X0196108Y0154751D01*
X0196102Y0154876D01*
X0196100Y0155000D01*
X0196000Y0151000D02*
X0204000Y0159000D01*
X0146100Y0185000D02*
X0146102Y0185124D01*
X0146108Y0185249D01*
X0146118Y0185373D01*
X0146132Y0185496D01*
X0146149Y0185619D01*
X0146171Y0185742D01*
X0146197Y0185864D01*
X0146226Y0185984D01*
X0146260Y0186104D01*
X0146297Y0186223D01*
X0146338Y0186340D01*
X0146382Y0186456D01*
X0146430Y0186571D01*
X0146482Y0186684D01*
X0146538Y0186795D01*
X0146597Y0186905D01*
X0146659Y0187012D01*
X0146725Y0187118D01*
X0146794Y0187221D01*
X0146867Y0187322D01*
X0146943Y0187421D01*
X0147021Y0187517D01*
X0147103Y0187611D01*
X0147188Y0187702D01*
X0147275Y0187791D01*
X0147366Y0187876D01*
X0147459Y0187959D01*
X0147555Y0188038D01*
X0147653Y0188114D01*
X0147753Y0188188D01*
X0147856Y0188258D01*
X0147961Y0188324D01*
X0148068Y0188388D01*
X0148177Y0188448D01*
X0148288Y0188504D01*
X0148400Y0188557D01*
X0148515Y0188606D01*
X0148630Y0188652D01*
X0148748Y0188693D01*
X0148866Y0188732D01*
X0148986Y0188766D01*
X0149106Y0188796D01*
X0149228Y0188823D01*
X0149350Y0188845D01*
X0149473Y0188864D01*
X0149596Y0188879D01*
X0149720Y0188890D01*
X0149845Y0188897D01*
X0149969Y0188900D01*
X0150093Y0188899D01*
X0150218Y0188894D01*
X0150342Y0188885D01*
X0150465Y0188872D01*
X0150589Y0188855D01*
X0150711Y0188835D01*
X0150833Y0188810D01*
X0150954Y0188781D01*
X0151074Y0188749D01*
X0151193Y0188713D01*
X0151311Y0188673D01*
X0151428Y0188629D01*
X0151543Y0188582D01*
X0151656Y0188531D01*
X0151768Y0188476D01*
X0151878Y0188418D01*
X0151986Y0188357D01*
X0152092Y0188292D01*
X0152196Y0188223D01*
X0152297Y0188152D01*
X0152397Y0188077D01*
X0152494Y0187999D01*
X0152588Y0187918D01*
X0152680Y0187834D01*
X0152769Y0187747D01*
X0152855Y0187657D01*
X0152938Y0187565D01*
X0153018Y0187470D01*
X0153096Y0187372D01*
X0153170Y0187272D01*
X0153241Y0187170D01*
X0153308Y0187066D01*
X0153372Y0186959D01*
X0153433Y0186850D01*
X0153490Y0186740D01*
X0153544Y0186628D01*
X0153594Y0186514D01*
X0153641Y0186399D01*
X0153683Y0186282D01*
X0153722Y0186164D01*
X0153758Y0186044D01*
X0153789Y0185924D01*
X0153816Y0185803D01*
X0153840Y0185681D01*
X0153860Y0185558D01*
X0153876Y0185434D01*
X0153888Y0185311D01*
X0153896Y0185187D01*
X0153900Y0185062D01*
X0153900Y0184938D01*
X0153896Y0184813D01*
X0153888Y0184689D01*
X0153876Y0184566D01*
X0153860Y0184442D01*
X0153840Y0184319D01*
X0153816Y0184197D01*
X0153789Y0184076D01*
X0153758Y0183956D01*
X0153722Y0183836D01*
X0153683Y0183718D01*
X0153641Y0183601D01*
X0153594Y0183486D01*
X0153544Y0183372D01*
X0153490Y0183260D01*
X0153433Y0183150D01*
X0153372Y0183041D01*
X0153308Y0182934D01*
X0153241Y0182830D01*
X0153170Y0182728D01*
X0153096Y0182628D01*
X0153018Y0182530D01*
X0152938Y0182435D01*
X0152855Y0182343D01*
X0152769Y0182253D01*
X0152680Y0182166D01*
X0152588Y0182082D01*
X0152494Y0182001D01*
X0152397Y0181923D01*
X0152297Y0181848D01*
X0152196Y0181777D01*
X0152092Y0181708D01*
X0151986Y0181643D01*
X0151878Y0181582D01*
X0151768Y0181524D01*
X0151656Y0181469D01*
X0151543Y0181418D01*
X0151428Y0181371D01*
X0151311Y0181327D01*
X0151193Y0181287D01*
X0151074Y0181251D01*
X0150954Y0181219D01*
X0150833Y0181190D01*
X0150711Y0181165D01*
X0150589Y0181145D01*
X0150465Y0181128D01*
X0150342Y0181115D01*
X0150218Y0181106D01*
X0150093Y0181101D01*
X0149969Y0181100D01*
X0149845Y0181103D01*
X0149720Y0181110D01*
X0149596Y0181121D01*
X0149473Y0181136D01*
X0149350Y0181155D01*
X0149228Y0181177D01*
X0149106Y0181204D01*
X0148986Y0181234D01*
X0148866Y0181268D01*
X0148748Y0181307D01*
X0148630Y0181348D01*
X0148515Y0181394D01*
X0148400Y0181443D01*
X0148288Y0181496D01*
X0148177Y0181552D01*
X0148068Y0181612D01*
X0147961Y0181676D01*
X0147856Y0181742D01*
X0147753Y0181812D01*
X0147653Y0181886D01*
X0147555Y0181962D01*
X0147459Y0182041D01*
X0147366Y0182124D01*
X0147275Y0182209D01*
X0147188Y0182298D01*
X0147103Y0182389D01*
X0147021Y0182483D01*
X0146943Y0182579D01*
X0146867Y0182678D01*
X0146794Y0182779D01*
X0146725Y0182882D01*
X0146659Y0182988D01*
X0146597Y0183095D01*
X0146538Y0183205D01*
X0146482Y0183316D01*
X0146430Y0183429D01*
X0146382Y0183544D01*
X0146338Y0183660D01*
X0146297Y0183777D01*
X0146260Y0183896D01*
X0146226Y0184016D01*
X0146197Y0184136D01*
X0146171Y0184258D01*
X0146149Y0184381D01*
X0146132Y0184504D01*
X0146118Y0184627D01*
X0146108Y0184751D01*
X0146102Y0184876D01*
X0146100Y0185000D01*
X0146000Y0181000D02*
X0154000Y0189000D01*
X0136100Y0185000D02*
X0136102Y0185124D01*
X0136108Y0185249D01*
X0136118Y0185373D01*
X0136132Y0185496D01*
X0136149Y0185619D01*
X0136171Y0185742D01*
X0136197Y0185864D01*
X0136226Y0185984D01*
X0136260Y0186104D01*
X0136297Y0186223D01*
X0136338Y0186340D01*
X0136382Y0186456D01*
X0136430Y0186571D01*
X0136482Y0186684D01*
X0136538Y0186795D01*
X0136597Y0186905D01*
X0136659Y0187012D01*
X0136725Y0187118D01*
X0136794Y0187221D01*
X0136867Y0187322D01*
X0136943Y0187421D01*
X0137021Y0187517D01*
X0137103Y0187611D01*
X0137188Y0187702D01*
X0137275Y0187791D01*
X0137366Y0187876D01*
X0137459Y0187959D01*
X0137555Y0188038D01*
X0137653Y0188114D01*
X0137753Y0188188D01*
X0137856Y0188258D01*
X0137961Y0188324D01*
X0138068Y0188388D01*
X0138177Y0188448D01*
X0138288Y0188504D01*
X0138400Y0188557D01*
X0138515Y0188606D01*
X0138630Y0188652D01*
X0138748Y0188693D01*
X0138866Y0188732D01*
X0138986Y0188766D01*
X0139106Y0188796D01*
X0139228Y0188823D01*
X0139350Y0188845D01*
X0139473Y0188864D01*
X0139596Y0188879D01*
X0139720Y0188890D01*
X0139845Y0188897D01*
X0139969Y0188900D01*
X0140093Y0188899D01*
X0140218Y0188894D01*
X0140342Y0188885D01*
X0140465Y0188872D01*
X0140589Y0188855D01*
X0140711Y0188835D01*
X0140833Y0188810D01*
X0140954Y0188781D01*
X0141074Y0188749D01*
X0141193Y0188713D01*
X0141311Y0188673D01*
X0141428Y0188629D01*
X0141543Y0188582D01*
X0141656Y0188531D01*
X0141768Y0188476D01*
X0141878Y0188418D01*
X0141986Y0188357D01*
X0142092Y0188292D01*
X0142196Y0188223D01*
X0142297Y0188152D01*
X0142397Y0188077D01*
X0142494Y0187999D01*
X0142588Y0187918D01*
X0142680Y0187834D01*
X0142769Y0187747D01*
X0142855Y0187657D01*
X0142938Y0187565D01*
X0143018Y0187470D01*
X0143096Y0187372D01*
X0143170Y0187272D01*
X0143241Y0187170D01*
X0143308Y0187066D01*
X0143372Y0186959D01*
X0143433Y0186850D01*
X0143490Y0186740D01*
X0143544Y0186628D01*
X0143594Y0186514D01*
X0143641Y0186399D01*
X0143683Y0186282D01*
X0143722Y0186164D01*
X0143758Y0186044D01*
X0143789Y0185924D01*
X0143816Y0185803D01*
X0143840Y0185681D01*
X0143860Y0185558D01*
X0143876Y0185434D01*
X0143888Y0185311D01*
X0143896Y0185187D01*
X0143900Y0185062D01*
X0143900Y0184938D01*
X0143896Y0184813D01*
X0143888Y0184689D01*
X0143876Y0184566D01*
X0143860Y0184442D01*
X0143840Y0184319D01*
X0143816Y0184197D01*
X0143789Y0184076D01*
X0143758Y0183956D01*
X0143722Y0183836D01*
X0143683Y0183718D01*
X0143641Y0183601D01*
X0143594Y0183486D01*
X0143544Y0183372D01*
X0143490Y0183260D01*
X0143433Y0183150D01*
X0143372Y0183041D01*
X0143308Y0182934D01*
X0143241Y0182830D01*
X0143170Y0182728D01*
X0143096Y0182628D01*
X0143018Y0182530D01*
X0142938Y0182435D01*
X0142855Y0182343D01*
X0142769Y0182253D01*
X0142680Y0182166D01*
X0142588Y0182082D01*
X0142494Y0182001D01*
X0142397Y0181923D01*
X0142297Y0181848D01*
X0142196Y0181777D01*
X0142092Y0181708D01*
X0141986Y0181643D01*
X0141878Y0181582D01*
X0141768Y0181524D01*
X0141656Y0181469D01*
X0141543Y0181418D01*
X0141428Y0181371D01*
X0141311Y0181327D01*
X0141193Y0181287D01*
X0141074Y0181251D01*
X0140954Y0181219D01*
X0140833Y0181190D01*
X0140711Y0181165D01*
X0140589Y0181145D01*
X0140465Y0181128D01*
X0140342Y0181115D01*
X0140218Y0181106D01*
X0140093Y0181101D01*
X0139969Y0181100D01*
X0139845Y0181103D01*
X0139720Y0181110D01*
X0139596Y0181121D01*
X0139473Y0181136D01*
X0139350Y0181155D01*
X0139228Y0181177D01*
X0139106Y0181204D01*
X0138986Y0181234D01*
X0138866Y0181268D01*
X0138748Y0181307D01*
X0138630Y0181348D01*
X0138515Y0181394D01*
X0138400Y0181443D01*
X0138288Y0181496D01*
X0138177Y0181552D01*
X0138068Y0181612D01*
X0137961Y0181676D01*
X0137856Y0181742D01*
X0137753Y0181812D01*
X0137653Y0181886D01*
X0137555Y0181962D01*
X0137459Y0182041D01*
X0137366Y0182124D01*
X0137275Y0182209D01*
X0137188Y0182298D01*
X0137103Y0182389D01*
X0137021Y0182483D01*
X0136943Y0182579D01*
X0136867Y0182678D01*
X0136794Y0182779D01*
X0136725Y0182882D01*
X0136659Y0182988D01*
X0136597Y0183095D01*
X0136538Y0183205D01*
X0136482Y0183316D01*
X0136430Y0183429D01*
X0136382Y0183544D01*
X0136338Y0183660D01*
X0136297Y0183777D01*
X0136260Y0183896D01*
X0136226Y0184016D01*
X0136197Y0184136D01*
X0136171Y0184258D01*
X0136149Y0184381D01*
X0136132Y0184504D01*
X0136118Y0184627D01*
X0136108Y0184751D01*
X0136102Y0184876D01*
X0136100Y0185000D01*
X0136000Y0181000D02*
X0144000Y0189000D01*
X0126100Y0185000D02*
X0126102Y0185124D01*
X0126108Y0185249D01*
X0126118Y0185373D01*
X0126132Y0185496D01*
X0126149Y0185619D01*
X0126171Y0185742D01*
X0126197Y0185864D01*
X0126226Y0185984D01*
X0126260Y0186104D01*
X0126297Y0186223D01*
X0126338Y0186340D01*
X0126382Y0186456D01*
X0126430Y0186571D01*
X0126482Y0186684D01*
X0126538Y0186795D01*
X0126597Y0186905D01*
X0126659Y0187012D01*
X0126725Y0187118D01*
X0126794Y0187221D01*
X0126867Y0187322D01*
X0126943Y0187421D01*
X0127021Y0187517D01*
X0127103Y0187611D01*
X0127188Y0187702D01*
X0127275Y0187791D01*
X0127366Y0187876D01*
X0127459Y0187959D01*
X0127555Y0188038D01*
X0127653Y0188114D01*
X0127753Y0188188D01*
X0127856Y0188258D01*
X0127961Y0188324D01*
X0128068Y0188388D01*
X0128177Y0188448D01*
X0128288Y0188504D01*
X0128400Y0188557D01*
X0128515Y0188606D01*
X0128630Y0188652D01*
X0128748Y0188693D01*
X0128866Y0188732D01*
X0128986Y0188766D01*
X0129106Y0188796D01*
X0129228Y0188823D01*
X0129350Y0188845D01*
X0129473Y0188864D01*
X0129596Y0188879D01*
X0129720Y0188890D01*
X0129845Y0188897D01*
X0129969Y0188900D01*
X0130093Y0188899D01*
X0130218Y0188894D01*
X0130342Y0188885D01*
X0130465Y0188872D01*
X0130589Y0188855D01*
X0130711Y0188835D01*
X0130833Y0188810D01*
X0130954Y0188781D01*
X0131074Y0188749D01*
X0131193Y0188713D01*
X0131311Y0188673D01*
X0131428Y0188629D01*
X0131543Y0188582D01*
X0131656Y0188531D01*
X0131768Y0188476D01*
X0131878Y0188418D01*
X0131986Y0188357D01*
X0132092Y0188292D01*
X0132196Y0188223D01*
X0132297Y0188152D01*
X0132397Y0188077D01*
X0132494Y0187999D01*
X0132588Y0187918D01*
X0132680Y0187834D01*
X0132769Y0187747D01*
X0132855Y0187657D01*
X0132938Y0187565D01*
X0133018Y0187470D01*
X0133096Y0187372D01*
X0133170Y0187272D01*
X0133241Y0187170D01*
X0133308Y0187066D01*
X0133372Y0186959D01*
X0133433Y0186850D01*
X0133490Y0186740D01*
X0133544Y0186628D01*
X0133594Y0186514D01*
X0133641Y0186399D01*
X0133683Y0186282D01*
X0133722Y0186164D01*
X0133758Y0186044D01*
X0133789Y0185924D01*
X0133816Y0185803D01*
X0133840Y0185681D01*
X0133860Y0185558D01*
X0133876Y0185434D01*
X0133888Y0185311D01*
X0133896Y0185187D01*
X0133900Y0185062D01*
X0133900Y0184938D01*
X0133896Y0184813D01*
X0133888Y0184689D01*
X0133876Y0184566D01*
X0133860Y0184442D01*
X0133840Y0184319D01*
X0133816Y0184197D01*
X0133789Y0184076D01*
X0133758Y0183956D01*
X0133722Y0183836D01*
X0133683Y0183718D01*
X0133641Y0183601D01*
X0133594Y0183486D01*
X0133544Y0183372D01*
X0133490Y0183260D01*
X0133433Y0183150D01*
X0133372Y0183041D01*
X0133308Y0182934D01*
X0133241Y0182830D01*
X0133170Y0182728D01*
X0133096Y0182628D01*
X0133018Y0182530D01*
X0132938Y0182435D01*
X0132855Y0182343D01*
X0132769Y0182253D01*
X0132680Y0182166D01*
X0132588Y0182082D01*
X0132494Y0182001D01*
X0132397Y0181923D01*
X0132297Y0181848D01*
X0132196Y0181777D01*
X0132092Y0181708D01*
X0131986Y0181643D01*
X0131878Y0181582D01*
X0131768Y0181524D01*
X0131656Y0181469D01*
X0131543Y0181418D01*
X0131428Y0181371D01*
X0131311Y0181327D01*
X0131193Y0181287D01*
X0131074Y0181251D01*
X0130954Y0181219D01*
X0130833Y0181190D01*
X0130711Y0181165D01*
X0130589Y0181145D01*
X0130465Y0181128D01*
X0130342Y0181115D01*
X0130218Y0181106D01*
X0130093Y0181101D01*
X0129969Y0181100D01*
X0129845Y0181103D01*
X0129720Y0181110D01*
X0129596Y0181121D01*
X0129473Y0181136D01*
X0129350Y0181155D01*
X0129228Y0181177D01*
X0129106Y0181204D01*
X0128986Y0181234D01*
X0128866Y0181268D01*
X0128748Y0181307D01*
X0128630Y0181348D01*
X0128515Y0181394D01*
X0128400Y0181443D01*
X0128288Y0181496D01*
X0128177Y0181552D01*
X0128068Y0181612D01*
X0127961Y0181676D01*
X0127856Y0181742D01*
X0127753Y0181812D01*
X0127653Y0181886D01*
X0127555Y0181962D01*
X0127459Y0182041D01*
X0127366Y0182124D01*
X0127275Y0182209D01*
X0127188Y0182298D01*
X0127103Y0182389D01*
X0127021Y0182483D01*
X0126943Y0182579D01*
X0126867Y0182678D01*
X0126794Y0182779D01*
X0126725Y0182882D01*
X0126659Y0182988D01*
X0126597Y0183095D01*
X0126538Y0183205D01*
X0126482Y0183316D01*
X0126430Y0183429D01*
X0126382Y0183544D01*
X0126338Y0183660D01*
X0126297Y0183777D01*
X0126260Y0183896D01*
X0126226Y0184016D01*
X0126197Y0184136D01*
X0126171Y0184258D01*
X0126149Y0184381D01*
X0126132Y0184504D01*
X0126118Y0184627D01*
X0126108Y0184751D01*
X0126102Y0184876D01*
X0126100Y0185000D01*
X0126000Y0181000D02*
X0134000Y0189000D01*
X0125000Y0231000D02*
X0133000Y0239000D01*
X0133000Y0231000D01*
X0125000Y0239000D01*
X0125000Y0231000D01*
X0123000Y0239000D02*
X0115000Y0231000D01*
X0123000Y0231000D02*
X0123000Y0239000D01*
X0123000Y0231000D02*
X0115000Y0239000D01*
X0115000Y0231000D01*
X0135000Y0231000D02*
X0143000Y0239000D01*
X0143000Y0231000D01*
X0135000Y0239000D01*
X0135000Y0231000D01*
X0145000Y0231000D02*
X0153000Y0239000D01*
X0153000Y0231000D01*
X0145000Y0239000D01*
X0145000Y0231000D01*
X0155000Y0231000D02*
X0163000Y0239000D01*
X0163000Y0231000D01*
X0155000Y0239000D01*
X0155000Y0231000D01*
X0165000Y0231000D02*
X0173000Y0239000D01*
X0173000Y0231000D01*
X0165000Y0239000D01*
X0165000Y0231000D01*
X0175000Y0231000D02*
X0183000Y0239000D01*
X0183000Y0231000D01*
X0175000Y0239000D01*
X0175000Y0231000D01*
X0185000Y0231000D02*
X0193000Y0239000D01*
X0193000Y0231000D01*
X0185000Y0239000D01*
X0185000Y0231000D01*
X0195000Y0231000D02*
X0203000Y0239000D01*
X0203000Y0231000D01*
X0195000Y0239000D01*
X0195000Y0231000D01*
X0205000Y0231000D02*
X0213000Y0239000D01*
X0213000Y0231000D01*
X0205000Y0239000D01*
X0205000Y0231000D01*
X0221000Y0231000D02*
X0229000Y0239000D01*
X0229000Y0231000D01*
X0221000Y0239000D01*
X0221000Y0231000D01*
X0231000Y0231000D02*
X0239000Y0239000D01*
X0239000Y0231000D01*
X0231000Y0239000D01*
X0231000Y0231000D01*
X0241000Y0231000D02*
X0249000Y0239000D01*
X0249000Y0231000D01*
X0241000Y0239000D01*
X0241000Y0231000D01*
X0251000Y0231000D02*
X0259000Y0239000D01*
X0259000Y0231000D01*
X0251000Y0239000D01*
X0251000Y0231000D01*
X0261000Y0231000D02*
X0269000Y0239000D01*
X0269000Y0231000D01*
X0261000Y0239000D01*
X0261000Y0231000D01*
X0271000Y0231000D02*
X0279000Y0239000D01*
X0279000Y0231000D01*
X0271000Y0239000D01*
X0271000Y0231000D01*
X0281000Y0231000D02*
X0289000Y0239000D01*
X0289000Y0231000D01*
X0281000Y0239000D01*
X0281000Y0231000D01*
X0291000Y0231000D02*
X0299000Y0239000D01*
X0299000Y0231000D01*
X0291000Y0239000D01*
X0291000Y0231000D01*
X0136600Y0075000D02*
X0136602Y0075124D01*
X0136608Y0075249D01*
X0136618Y0075373D01*
X0136632Y0075496D01*
X0136649Y0075619D01*
X0136671Y0075742D01*
X0136697Y0075864D01*
X0136726Y0075984D01*
X0136760Y0076104D01*
X0136797Y0076223D01*
X0136838Y0076340D01*
X0136882Y0076456D01*
X0136930Y0076571D01*
X0136982Y0076684D01*
X0137038Y0076795D01*
X0137097Y0076905D01*
X0137159Y0077012D01*
X0137225Y0077118D01*
X0137294Y0077221D01*
X0137367Y0077322D01*
X0137443Y0077421D01*
X0137521Y0077517D01*
X0137603Y0077611D01*
X0137688Y0077702D01*
X0137775Y0077791D01*
X0137866Y0077876D01*
X0137959Y0077959D01*
X0138055Y0078038D01*
X0138153Y0078114D01*
X0138253Y0078188D01*
X0138356Y0078258D01*
X0138461Y0078324D01*
X0138568Y0078388D01*
X0138677Y0078448D01*
X0138788Y0078504D01*
X0138900Y0078557D01*
X0139015Y0078606D01*
X0139130Y0078652D01*
X0139248Y0078693D01*
X0139366Y0078732D01*
X0139486Y0078766D01*
X0139606Y0078796D01*
X0139728Y0078823D01*
X0139850Y0078845D01*
X0139973Y0078864D01*
X0140096Y0078879D01*
X0140220Y0078890D01*
X0140345Y0078897D01*
X0140469Y0078900D01*
X0140593Y0078899D01*
X0140718Y0078894D01*
X0140842Y0078885D01*
X0140965Y0078872D01*
X0141089Y0078855D01*
X0141211Y0078835D01*
X0141333Y0078810D01*
X0141454Y0078781D01*
X0141574Y0078749D01*
X0141693Y0078713D01*
X0141811Y0078673D01*
X0141928Y0078629D01*
X0142043Y0078582D01*
X0142156Y0078531D01*
X0142268Y0078476D01*
X0142378Y0078418D01*
X0142486Y0078357D01*
X0142592Y0078292D01*
X0142696Y0078223D01*
X0142797Y0078152D01*
X0142897Y0078077D01*
X0142994Y0077999D01*
X0143088Y0077918D01*
X0143180Y0077834D01*
X0143269Y0077747D01*
X0143355Y0077657D01*
X0143438Y0077565D01*
X0143518Y0077470D01*
X0143596Y0077372D01*
X0143670Y0077272D01*
X0143741Y0077170D01*
X0143808Y0077066D01*
X0143872Y0076959D01*
X0143933Y0076850D01*
X0143990Y0076740D01*
X0144044Y0076628D01*
X0144094Y0076514D01*
X0144141Y0076399D01*
X0144183Y0076282D01*
X0144222Y0076164D01*
X0144258Y0076044D01*
X0144289Y0075924D01*
X0144316Y0075803D01*
X0144340Y0075681D01*
X0144360Y0075558D01*
X0144376Y0075434D01*
X0144388Y0075311D01*
X0144396Y0075187D01*
X0144400Y0075062D01*
X0144400Y0074938D01*
X0144396Y0074813D01*
X0144388Y0074689D01*
X0144376Y0074566D01*
X0144360Y0074442D01*
X0144340Y0074319D01*
X0144316Y0074197D01*
X0144289Y0074076D01*
X0144258Y0073956D01*
X0144222Y0073836D01*
X0144183Y0073718D01*
X0144141Y0073601D01*
X0144094Y0073486D01*
X0144044Y0073372D01*
X0143990Y0073260D01*
X0143933Y0073150D01*
X0143872Y0073041D01*
X0143808Y0072934D01*
X0143741Y0072830D01*
X0143670Y0072728D01*
X0143596Y0072628D01*
X0143518Y0072530D01*
X0143438Y0072435D01*
X0143355Y0072343D01*
X0143269Y0072253D01*
X0143180Y0072166D01*
X0143088Y0072082D01*
X0142994Y0072001D01*
X0142897Y0071923D01*
X0142797Y0071848D01*
X0142696Y0071777D01*
X0142592Y0071708D01*
X0142486Y0071643D01*
X0142378Y0071582D01*
X0142268Y0071524D01*
X0142156Y0071469D01*
X0142043Y0071418D01*
X0141928Y0071371D01*
X0141811Y0071327D01*
X0141693Y0071287D01*
X0141574Y0071251D01*
X0141454Y0071219D01*
X0141333Y0071190D01*
X0141211Y0071165D01*
X0141089Y0071145D01*
X0140965Y0071128D01*
X0140842Y0071115D01*
X0140718Y0071106D01*
X0140593Y0071101D01*
X0140469Y0071100D01*
X0140345Y0071103D01*
X0140220Y0071110D01*
X0140096Y0071121D01*
X0139973Y0071136D01*
X0139850Y0071155D01*
X0139728Y0071177D01*
X0139606Y0071204D01*
X0139486Y0071234D01*
X0139366Y0071268D01*
X0139248Y0071307D01*
X0139130Y0071348D01*
X0139015Y0071394D01*
X0138900Y0071443D01*
X0138788Y0071496D01*
X0138677Y0071552D01*
X0138568Y0071612D01*
X0138461Y0071676D01*
X0138356Y0071742D01*
X0138253Y0071812D01*
X0138153Y0071886D01*
X0138055Y0071962D01*
X0137959Y0072041D01*
X0137866Y0072124D01*
X0137775Y0072209D01*
X0137688Y0072298D01*
X0137603Y0072389D01*
X0137521Y0072483D01*
X0137443Y0072579D01*
X0137367Y0072678D01*
X0137294Y0072779D01*
X0137225Y0072882D01*
X0137159Y0072988D01*
X0137097Y0073095D01*
X0137038Y0073205D01*
X0136982Y0073316D01*
X0136930Y0073429D01*
X0136882Y0073544D01*
X0136838Y0073660D01*
X0136797Y0073777D01*
X0136760Y0073896D01*
X0136726Y0074016D01*
X0136697Y0074136D01*
X0136671Y0074258D01*
X0136649Y0074381D01*
X0136632Y0074504D01*
X0136618Y0074627D01*
X0136608Y0074751D01*
X0136602Y0074876D01*
X0136600Y0075000D01*
X0136500Y0071000D02*
X0144500Y0079000D01*
X0125600Y0075000D02*
X0125602Y0075124D01*
X0125608Y0075249D01*
X0125618Y0075373D01*
X0125632Y0075496D01*
X0125649Y0075619D01*
X0125671Y0075742D01*
X0125697Y0075864D01*
X0125726Y0075984D01*
X0125760Y0076104D01*
X0125797Y0076223D01*
X0125838Y0076340D01*
X0125882Y0076456D01*
X0125930Y0076571D01*
X0125982Y0076684D01*
X0126038Y0076795D01*
X0126097Y0076905D01*
X0126159Y0077012D01*
X0126225Y0077118D01*
X0126294Y0077221D01*
X0126367Y0077322D01*
X0126443Y0077421D01*
X0126521Y0077517D01*
X0126603Y0077611D01*
X0126688Y0077702D01*
X0126775Y0077791D01*
X0126866Y0077876D01*
X0126959Y0077959D01*
X0127055Y0078038D01*
X0127153Y0078114D01*
X0127253Y0078188D01*
X0127356Y0078258D01*
X0127461Y0078324D01*
X0127568Y0078388D01*
X0127677Y0078448D01*
X0127788Y0078504D01*
X0127900Y0078557D01*
X0128015Y0078606D01*
X0128130Y0078652D01*
X0128248Y0078693D01*
X0128366Y0078732D01*
X0128486Y0078766D01*
X0128606Y0078796D01*
X0128728Y0078823D01*
X0128850Y0078845D01*
X0128973Y0078864D01*
X0129096Y0078879D01*
X0129220Y0078890D01*
X0129345Y0078897D01*
X0129469Y0078900D01*
X0129593Y0078899D01*
X0129718Y0078894D01*
X0129842Y0078885D01*
X0129965Y0078872D01*
X0130089Y0078855D01*
X0130211Y0078835D01*
X0130333Y0078810D01*
X0130454Y0078781D01*
X0130574Y0078749D01*
X0130693Y0078713D01*
X0130811Y0078673D01*
X0130928Y0078629D01*
X0131043Y0078582D01*
X0131156Y0078531D01*
X0131268Y0078476D01*
X0131378Y0078418D01*
X0131486Y0078357D01*
X0131592Y0078292D01*
X0131696Y0078223D01*
X0131797Y0078152D01*
X0131897Y0078077D01*
X0131994Y0077999D01*
X0132088Y0077918D01*
X0132180Y0077834D01*
X0132269Y0077747D01*
X0132355Y0077657D01*
X0132438Y0077565D01*
X0132518Y0077470D01*
X0132596Y0077372D01*
X0132670Y0077272D01*
X0132741Y0077170D01*
X0132808Y0077066D01*
X0132872Y0076959D01*
X0132933Y0076850D01*
X0132990Y0076740D01*
X0133044Y0076628D01*
X0133094Y0076514D01*
X0133141Y0076399D01*
X0133183Y0076282D01*
X0133222Y0076164D01*
X0133258Y0076044D01*
X0133289Y0075924D01*
X0133316Y0075803D01*
X0133340Y0075681D01*
X0133360Y0075558D01*
X0133376Y0075434D01*
X0133388Y0075311D01*
X0133396Y0075187D01*
X0133400Y0075062D01*
X0133400Y0074938D01*
X0133396Y0074813D01*
X0133388Y0074689D01*
X0133376Y0074566D01*
X0133360Y0074442D01*
X0133340Y0074319D01*
X0133316Y0074197D01*
X0133289Y0074076D01*
X0133258Y0073956D01*
X0133222Y0073836D01*
X0133183Y0073718D01*
X0133141Y0073601D01*
X0133094Y0073486D01*
X0133044Y0073372D01*
X0132990Y0073260D01*
X0132933Y0073150D01*
X0132872Y0073041D01*
X0132808Y0072934D01*
X0132741Y0072830D01*
X0132670Y0072728D01*
X0132596Y0072628D01*
X0132518Y0072530D01*
X0132438Y0072435D01*
X0132355Y0072343D01*
X0132269Y0072253D01*
X0132180Y0072166D01*
X0132088Y0072082D01*
X0131994Y0072001D01*
X0131897Y0071923D01*
X0131797Y0071848D01*
X0131696Y0071777D01*
X0131592Y0071708D01*
X0131486Y0071643D01*
X0131378Y0071582D01*
X0131268Y0071524D01*
X0131156Y0071469D01*
X0131043Y0071418D01*
X0130928Y0071371D01*
X0130811Y0071327D01*
X0130693Y0071287D01*
X0130574Y0071251D01*
X0130454Y0071219D01*
X0130333Y0071190D01*
X0130211Y0071165D01*
X0130089Y0071145D01*
X0129965Y0071128D01*
X0129842Y0071115D01*
X0129718Y0071106D01*
X0129593Y0071101D01*
X0129469Y0071100D01*
X0129345Y0071103D01*
X0129220Y0071110D01*
X0129096Y0071121D01*
X0128973Y0071136D01*
X0128850Y0071155D01*
X0128728Y0071177D01*
X0128606Y0071204D01*
X0128486Y0071234D01*
X0128366Y0071268D01*
X0128248Y0071307D01*
X0128130Y0071348D01*
X0128015Y0071394D01*
X0127900Y0071443D01*
X0127788Y0071496D01*
X0127677Y0071552D01*
X0127568Y0071612D01*
X0127461Y0071676D01*
X0127356Y0071742D01*
X0127253Y0071812D01*
X0127153Y0071886D01*
X0127055Y0071962D01*
X0126959Y0072041D01*
X0126866Y0072124D01*
X0126775Y0072209D01*
X0126688Y0072298D01*
X0126603Y0072389D01*
X0126521Y0072483D01*
X0126443Y0072579D01*
X0126367Y0072678D01*
X0126294Y0072779D01*
X0126225Y0072882D01*
X0126159Y0072988D01*
X0126097Y0073095D01*
X0126038Y0073205D01*
X0125982Y0073316D01*
X0125930Y0073429D01*
X0125882Y0073544D01*
X0125838Y0073660D01*
X0125797Y0073777D01*
X0125760Y0073896D01*
X0125726Y0074016D01*
X0125697Y0074136D01*
X0125671Y0074258D01*
X0125649Y0074381D01*
X0125632Y0074504D01*
X0125618Y0074627D01*
X0125608Y0074751D01*
X0125602Y0074876D01*
X0125600Y0075000D01*
X0125500Y0071000D02*
X0133500Y0079000D01*
M02*
