%
M48
M72
T01C0.0276
T02C0.0394
T03C0.0400
T04C0.0520
%
T01
X21500Y11000
X21500Y12000
X22500Y6500
X23500Y6500
T02
X15500Y4500
X16500Y4500
X17500Y4500
X18500Y4500
X19500Y4500
X20500Y4500
X21500Y4500
X22500Y4500
X24500Y4500
X25500Y4500
X26500Y4500
X27500Y4500
X28500Y4500
X29500Y4500
X29500Y23500
X28500Y23500
X27500Y23500
X26500Y23500
X25500Y23500
X24500Y23500
X23500Y23500
X22500Y23500
X20900Y23500
X19900Y23500
X18900Y23500
X17900Y23500
X16900Y23500
X15900Y23500
X14900Y23500
X13900Y23500
X12900Y23500
X11900Y23500
T03
X26000Y17000
X26100Y16000
X26000Y15000
X24500Y11000
X24500Y10000
X24500Y9000
X20050Y8000
X18950Y8000
X17050Y8000
X15950Y8000
T04
X16900Y15000
X14900Y15000
X14900Y19000
X16900Y19000
X21100Y19000
X23100Y19000
X23100Y15000
X21100Y15000
M30
